<?xml version="1.0" encoding="UTF-8"?>
<!DOCTYPE svg PUBLIC "-//W3C//DTD SVG 1.1//EN"
    "http://www.w3.org/Graphics/SVG/1.1/DTD/svg11.dtd"><svg xmlns="http://www.w3.org/2000/svg" height="917.4321" stroke-opacity="1" viewBox="0 0 800 917" font-size="1" width="800.0000" xmlns:xlink="http://www.w3.org/1999/xlink" stroke="rgb(0,0,0)" version="1.1"><defs></defs><g stroke-linejoin="miter" stroke-opacity="1.0" fill-opacity="1.0" stroke="rgb(0,0,0)" stroke-width="3.426825100444049" fill="rgb(255,0,255)" stroke-linecap="butt" stroke-miterlimit="10.0"><path d="M 92.9170,691.1817 l -89.5669,89.5669 c 57.9241,57.9241 130.0751,99.5805 209.2009 120.7822l 32.7837,-122.3506 c -57.6488,-15.4470 -110.2160,-45.7966 -152.4178 -87.9985Z"/></g><g stroke-linejoin="miter" stroke-opacity="1.0" fill-opacity="1.0" stroke="rgb(0,0,0)" stroke-width="3.426825100444049" fill="rgb(0,0,255)" stroke-linecap="butt" stroke-miterlimit="10.0"><path d="M 245.3349,779.1802 l -32.7837,122.3506 c 79.1259,21.2017 162.4386,21.2017 241.5644 0.0000l -32.7837,-122.3506 c -57.6488,15.4470 -118.3481,15.4470 -175.9970 0.0000Z"/></g><g stroke-linejoin="miter" stroke-opacity="1.0" fill-opacity="1.0" stroke="rgb(0,0,0)" stroke-width="3.426825100444049" fill="rgb(0,0,255)" stroke-linecap="butt" stroke-miterlimit="10.0"><path d="M 421.3318,779.1802 l 32.7837,122.3506 c 79.1259,-21.2017 151.2768,-62.8581 209.2009 -120.7822l -89.5669,-89.5669 c -42.2019,42.2019 -94.7690,72.5515 -152.4178 87.9985Z"/></g><g stroke-linejoin="miter" stroke-opacity="1.0" fill-opacity="1.0" stroke="rgb(0,0,0)" stroke-width="3.426825100444049" fill="rgb(0,0,255)" stroke-linecap="butt" stroke-miterlimit="10.0"><path d="M 573.7496,691.1817 l 89.5669,89.5669 c 57.9241,-57.9241 99.5805,-130.0751 120.7822 -209.2009l -122.3506,-32.7837 c -15.4470,57.6488 -45.7966,110.2160 -87.9985 152.4178Z"/></g><g stroke-linejoin="miter" stroke-opacity="1.0" fill-opacity="1.0" stroke="rgb(0,0,0)" stroke-width="3.426825100444049" fill="rgb(0,128,0)" stroke-linecap="butt" stroke-miterlimit="10.0"><path d="M 661.7481,538.7639 l 122.3506,32.7837 c 21.2017,-79.1259 21.2017,-162.4386 0.0000 -241.5644l -122.3506,32.7837 c 15.4470,57.6488 15.4470,118.3481 -0.0000 175.9970Z"/></g><g stroke-linejoin="miter" stroke-opacity="1.0" fill-opacity="1.0" stroke="rgb(0,0,0)" stroke-width="3.426825100444049" fill="rgb(0,128,0)" stroke-linecap="butt" stroke-miterlimit="10.0"><path d="M 661.7481,362.7669 l 122.3506,-32.7837 c -21.2017,-79.1259 -62.8581,-151.2768 -120.7822 -209.2009l -89.5669,89.5669 c 42.2019,42.2019 72.5515,94.7690 87.9985 152.4178Z"/></g><g stroke-linejoin="miter" stroke-opacity="1.0" fill-opacity="1.0" stroke="rgb(0,0,0)" stroke-width="3.426825100444049" fill="rgb(0,128,0)" stroke-linecap="butt" stroke-miterlimit="10.0"><path d="M 573.7496,210.3491 l 89.5669,-89.5669 c -57.9241,-57.9241 -130.0751,-99.5805 -209.2009 -120.7822l -32.7837,122.3506 c 57.6488,15.4470 110.2160,45.7966 152.4178 87.9985Z"/></g><g stroke-linejoin="miter" stroke-opacity="1.0" fill-opacity="0.0" stroke="rgb(0,0,0)" stroke-width="0.0" fill="rgb(0,0,0)" stroke-linecap="butt" stroke-miterlimit="10.0"><path d="M 107.7992,774.7354 l -33.3333,57.7350 l 57.7350,33.3333 l 33.3333,-57.7350 Z"/></g><g stroke-linejoin="miter" stroke-opacity="1.0" fill-opacity="1.0" font-size="66.66666666666667px" stroke="rgb(0,0,0)" stroke-width="3.426825100444049" fill="rgb(0,0,0)" stroke-linecap="butt" stroke-miterlimit="10.0"><text dominant-baseline="middle" transform="matrix(-0.8660,-0.5000,0.5000,-0.8660,120.0000,820.2696)" stroke="none" text-anchor="middle">Locrian</text></g><g stroke-linejoin="miter" stroke-opacity="1.0" fill-opacity="0.0" stroke="rgb(0,0,0)" stroke-width="0.0" fill="rgb(0,0,0)" stroke-linecap="butt" stroke-miterlimit="10.0"><path d="M 300.0000,844.0987 l 0.0000,66.6667 l 66.6667,-0.0000 l -0.0000,-66.6667 Z"/></g><g stroke-linejoin="miter" stroke-opacity="1.0" fill-opacity="1.0" font-size="66.66666666666667px" stroke="rgb(0,0,0)" stroke-width="3.426825100444049" fill="rgb(0,0,0)" stroke-linecap="butt" stroke-miterlimit="10.0"><text dominant-baseline="middle" transform="matrix(-1.0000,0.0000,-0.0000,-1.0000,333.3333,877.4321)" stroke="none" text-anchor="middle">Phrygian</text></g><g stroke-linejoin="miter" stroke-opacity="1.0" fill-opacity="0.0" stroke="rgb(0,0,0)" stroke-width="0.0" fill="rgb(0,0,0)" stroke-linecap="butt" stroke-miterlimit="10.0"><path d="M 501.1325,808.0687 l 33.3333,57.7350 l 57.7350,-33.3333 l -33.3333,-57.7350 Z"/></g><g stroke-linejoin="miter" stroke-opacity="1.0" fill-opacity="1.0" font-size="66.66666666666667px" stroke="rgb(0,0,0)" stroke-width="3.426825100444049" fill="rgb(0,0,0)" stroke-linecap="butt" stroke-miterlimit="10.0"><text dominant-baseline="middle" transform="matrix(-0.8660,0.5000,-0.5000,-0.8660,546.6667,820.2696)" stroke="none" text-anchor="middle">Aeolian</text></g><g stroke-linejoin="miter" stroke-opacity="1.0" fill-opacity="0.0" stroke="rgb(0,0,0)" stroke-width="0.0" fill="rgb(0,0,0)" stroke-linecap="butt" stroke-miterlimit="10.0"><path d="M 657.3033,676.2996 l 57.7350,33.3333 l 33.3333,-57.7350 l -57.7350,-33.3333 Z"/></g><g stroke-linejoin="miter" stroke-opacity="1.0" fill-opacity="1.0" font-size="66.66666666666667px" stroke="rgb(0,0,0)" stroke-width="3.426825100444049" fill="rgb(0,0,0)" stroke-linecap="butt" stroke-miterlimit="10.0"><text dominant-baseline="middle" transform="matrix(-0.5000,0.8660,-0.8660,-0.5000,702.8375,664.0987)" stroke="none" text-anchor="middle">Dorian</text></g><g stroke-linejoin="miter" stroke-opacity="1.0" fill-opacity="0.0" stroke="rgb(0,0,0)" stroke-width="0.0" fill="rgb(0,0,0)" stroke-linecap="butt" stroke-miterlimit="10.0"><path d="M 726.6667,484.0987 l 66.6667,-0.0000 l -0.0000,-66.6667 l -66.6667,-0.0000 Z"/></g><g stroke-linejoin="miter" stroke-opacity="1.0" fill-opacity="1.0" font-size="66.66666666666667px" stroke="rgb(0,0,0)" stroke-width="3.426825100444049" fill="rgb(0,0,0)" stroke-linecap="butt" stroke-miterlimit="10.0"><text dominant-baseline="middle" transform="matrix(0.0000,1.0000,-1.0000,0.0000,760.0000,450.7654)" stroke="none" text-anchor="middle">Mixolydian</text></g><g stroke-linejoin="miter" stroke-opacity="1.0" fill-opacity="0.0" stroke="rgb(0,0,0)" stroke-width="0.0" fill="rgb(0,0,0)" stroke-linecap="butt" stroke-miterlimit="10.0"><path d="M 690.6367,282.9662 l 57.7350,-33.3333 l -33.3333,-57.7350 l -57.7350,33.3333 Z"/></g><g stroke-linejoin="miter" stroke-opacity="1.0" fill-opacity="1.0" font-size="66.66666666666667px" stroke="rgb(0,0,0)" stroke-width="3.426825100444049" fill="rgb(0,0,0)" stroke-linecap="butt" stroke-miterlimit="10.0"><text dominant-baseline="middle" transform="matrix(0.5000,0.8660,-0.8660,0.5000,702.8375,237.4321)" stroke="none" text-anchor="middle">Ionian</text></g><g stroke-linejoin="miter" stroke-opacity="1.0" fill-opacity="0.0" stroke="rgb(0,0,0)" stroke-width="0.0" fill="rgb(0,0,0)" stroke-linecap="butt" stroke-miterlimit="10.0"><path d="M 558.8675,126.7954 l 33.3333,-57.7350 l -57.7350,-33.3333 l -33.3333,57.7350 Z"/></g><g stroke-linejoin="miter" stroke-opacity="1.0" fill-opacity="1.0" font-size="66.66666666666667px" stroke="rgb(0,0,0)" stroke-width="3.426825100444049" fill="rgb(0,0,0)" stroke-linecap="butt" stroke-miterlimit="10.0"><text dominant-baseline="middle" transform="matrix(0.8660,0.5000,-0.5000,0.8660,546.6667,81.2612)" stroke="none" text-anchor="middle">Lydian</text></g><g stroke-linejoin="miter" stroke-opacity="1.0" fill-opacity="0.0" stroke="rgb(0,0,0)" stroke-width="0.0" fill="rgb(0,0,0)" stroke-linecap="butt" stroke-miterlimit="10.0"><path d="M 137.7992,722.7739 l -33.3333,57.7350 l 57.7350,33.3333 l 33.3333,-57.7350 Z"/></g><g stroke-linejoin="miter" stroke-opacity="1.0" fill-opacity="1.0" font-size="66.66666666666667px" stroke="rgb(0,0,0)" stroke-width="3.426825100444049" fill="rgb(0,0,0)" stroke-linecap="butt" stroke-miterlimit="10.0"><text dominant-baseline="middle" transform="matrix(-0.8660,-0.5000,0.5000,-0.8660,150.0000,768.3080)" stroke="none" text-anchor="middle">TI</text></g><g stroke-linejoin="miter" stroke-opacity="1.0" fill-opacity="0.0" stroke="rgb(0,0,0)" stroke-width="0.0" fill="rgb(0,0,0)" stroke-linecap="butt" stroke-miterlimit="10.0"><path d="M 300.0000,784.0987 l 0.0000,66.6667 l 66.6667,-0.0000 l -0.0000,-66.6667 Z"/></g><g stroke-linejoin="miter" stroke-opacity="1.0" fill-opacity="1.0" font-size="66.66666666666667px" stroke="rgb(0,0,0)" stroke-width="3.426825100444049" fill="rgb(0,0,0)" stroke-linecap="butt" stroke-miterlimit="10.0"><text dominant-baseline="middle" transform="matrix(-1.0000,0.0000,-0.0000,-1.0000,333.3333,817.4321)" stroke="none" text-anchor="middle">mi</text></g><g stroke-linejoin="miter" stroke-opacity="1.0" fill-opacity="0.0" stroke="rgb(0,0,0)" stroke-width="0.0" fill="rgb(0,0,0)" stroke-linecap="butt" stroke-miterlimit="10.0"><path d="M 471.1325,756.1072 l 33.3333,57.7350 l 57.7350,-33.3333 l -33.3333,-57.7350 Z"/></g><g stroke-linejoin="miter" stroke-opacity="1.0" fill-opacity="1.0" font-size="66.66666666666667px" stroke="rgb(0,0,0)" stroke-width="3.426825100444049" fill="rgb(0,0,0)" stroke-linecap="butt" stroke-miterlimit="10.0"><text dominant-baseline="middle" transform="matrix(-0.8660,0.5000,-0.5000,-0.8660,516.6667,768.3080)" stroke="none" text-anchor="middle">la</text></g><g stroke-linejoin="miter" stroke-opacity="1.0" fill-opacity="0.0" stroke="rgb(0,0,0)" stroke-width="0.0" fill="rgb(0,0,0)" stroke-linecap="butt" stroke-miterlimit="10.0"><path d="M 605.3418,646.2996 l 57.7350,33.3333 l 33.3333,-57.7350 l -57.7350,-33.3333 Z"/></g><g stroke-linejoin="miter" stroke-opacity="1.0" fill-opacity="1.0" font-size="66.66666666666667px" stroke="rgb(0,0,0)" stroke-width="3.426825100444049" fill="rgb(0,0,0)" stroke-linecap="butt" stroke-miterlimit="10.0"><text dominant-baseline="middle" transform="matrix(-0.5000,0.8660,-0.8660,-0.5000,650.8760,634.0987)" stroke="none" text-anchor="middle">re</text></g><g stroke-linejoin="miter" stroke-opacity="1.0" fill-opacity="0.0" stroke="rgb(0,0,0)" stroke-width="0.0" fill="rgb(0,0,0)" stroke-linecap="butt" stroke-miterlimit="10.0"><path d="M 666.6667,484.0987 l 66.6667,-0.0000 l -0.0000,-66.6667 l -66.6667,-0.0000 Z"/></g><g stroke-linejoin="miter" stroke-opacity="1.0" fill-opacity="1.0" font-size="66.66666666666667px" stroke="rgb(0,0,0)" stroke-width="3.426825100444049" fill="rgb(0,0,0)" stroke-linecap="butt" stroke-miterlimit="10.0"><text dominant-baseline="middle" transform="matrix(0.0000,1.0000,-1.0000,0.0000,700.0000,450.7654)" stroke="none" text-anchor="middle">So</text></g><g stroke-linejoin="miter" stroke-opacity="1.0" fill-opacity="0.0" stroke="rgb(0,0,0)" stroke-width="0.0" fill="rgb(0,0,0)" stroke-linecap="butt" stroke-miterlimit="10.0"><path d="M 638.6751,312.9662 l 57.7350,-33.3333 l -33.3333,-57.7350 l -57.7350,33.3333 Z"/></g><g stroke-linejoin="miter" stroke-opacity="1.0" fill-opacity="1.0" font-size="66.66666666666667px" stroke="rgb(0,0,0)" stroke-width="3.426825100444049" fill="rgb(0,0,0)" stroke-linecap="butt" stroke-miterlimit="10.0"><text dominant-baseline="middle" transform="matrix(0.5000,0.8660,-0.8660,0.5000,650.8760,267.4321)" stroke="none" text-anchor="middle">Do</text></g><g stroke-linejoin="miter" stroke-opacity="1.0" fill-opacity="0.0" stroke="rgb(0,0,0)" stroke-width="0.0" fill="rgb(0,0,0)" stroke-linecap="butt" stroke-miterlimit="10.0"><path d="M 528.8675,178.7569 l 33.3333,-57.7350 l -57.7350,-33.3333 l -33.3333,57.7350 Z"/></g><g stroke-linejoin="miter" stroke-opacity="1.0" fill-opacity="1.0" font-size="66.66666666666667px" stroke="rgb(0,0,0)" stroke-width="3.426825100444049" fill="rgb(0,0,0)" stroke-linecap="butt" stroke-miterlimit="10.0"><text dominant-baseline="middle" transform="matrix(0.8660,0.5000,-0.5000,0.8660,516.6667,133.2227)" stroke="none" text-anchor="middle">Fa</text></g><g stroke-linejoin="miter" stroke-opacity="1.0" fill-opacity="0.0" stroke="rgb(0,0,0)" stroke-width="3.426825100444049" fill="rgb(0,0,0)" stroke-linecap="butt" stroke-miterlimit="10.0"><path d="M 455.8985,573.3306 l 113.1371,113.1371 c 41.3744,-41.3744 71.1289,-92.9108 86.2730 -149.4292l -154.5481,-41.4110 c -7.8749,29.3896 -23.3473,56.1885 -44.8620 77.7032Z"/></g><g stroke-linejoin="miter" stroke-opacity="1.0" fill-opacity="0.0" stroke="rgb(0,0,0)" stroke-width="3.426825100444049" fill="rgb(0,0,0)" stroke-linecap="butt" stroke-miterlimit="10.0"><path d="M 378.1953,618.1925 l 41.4110,154.5481 c 56.5185,-15.1441 108.0549,-44.8986 149.4292 -86.2730l -113.1371,-113.1371 c -21.5147,21.5147 -48.3136,36.9870 -77.7032 44.8620Z"/></g><g stroke-linejoin="miter" stroke-opacity="1.0" fill-opacity="0.0" stroke="rgb(0,0,0)" stroke-width="3.426825100444049" fill="rgb(0,0,0)" stroke-linecap="butt" stroke-miterlimit="10.0"><path d="M 288.4714,618.1925 l -41.4110,154.5481 c 56.5185,15.1441 116.0276,15.1441 172.5460 0.0000l -41.4110,-154.5481 c -29.3896,7.8749 -60.3343,7.8749 -89.7239 -0.0000Z"/></g><g stroke-linejoin="miter" stroke-opacity="1.0" fill-opacity="0.0" stroke="rgb(0,0,0)" stroke-width="3.426825100444049" fill="rgb(0,0,0)" stroke-linecap="butt" stroke-miterlimit="10.0"><path d="M 210.7682,573.3306 l -113.1371,113.1371 c 41.3744,41.3744 92.9108,71.1289 149.4292 86.2730l 41.4110,-154.5481 c -29.3896,-7.8749 -56.1885,-23.3473 -77.7032 -44.8620Z"/></g><g stroke-linejoin="miter" stroke-opacity="1.0" fill-opacity="0.0" stroke="rgb(0,0,0)" stroke-width="3.426825100444049" fill="rgb(0,0,0)" stroke-linecap="butt" stroke-miterlimit="10.0"><path d="M 165.9062,495.6274 l -154.5481,41.4110 c 15.1441,56.5185 44.8986,108.0549 86.2730 149.4292l 113.1371,-113.1371 c -21.5147,-21.5147 -36.9870,-48.3136 -44.8620 -77.7032Z"/></g><g stroke-linejoin="miter" stroke-opacity="1.0" fill-opacity="0.0" stroke="rgb(0,0,0)" stroke-width="3.426825100444049" fill="rgb(0,0,0)" stroke-linecap="butt" stroke-miterlimit="10.0"><path d="M 165.9062,405.9034 l -154.5481,-41.4110 c -15.1441,56.5185 -15.1441,116.0276 -0.0000 172.5460l 154.5481,-41.4110 c -7.8749,-29.3896 -7.8749,-60.3343 0.0000 -89.7239Z"/></g><g stroke-linejoin="miter" stroke-opacity="1.0" fill-opacity="0.0" stroke="rgb(0,0,0)" stroke-width="3.426825100444049" fill="rgb(0,0,0)" stroke-linecap="butt" stroke-miterlimit="10.0"><path d="M 210.7682,328.2002 l -113.1371,-113.1371 c -41.3744,41.3744 -71.1289,92.9108 -86.2730 149.4292l 154.5481,41.4110 c 7.8749,-29.3896 23.3473,-56.1885 44.8620 -77.7032Z"/></g><g stroke-linejoin="miter" stroke-opacity="1.0" fill-opacity="0.0" stroke="rgb(0,0,0)" stroke-width="3.426825100444049" fill="rgb(0,0,0)" stroke-linecap="butt" stroke-miterlimit="10.0"><path d="M 288.4714,283.3382 l -41.4110,-154.5481 c -56.5185,15.1441 -108.0549,44.8986 -149.4292 86.2730l 113.1371,113.1371 c 21.5147,-21.5147 48.3136,-36.9870 77.7032 -44.8620Z"/></g><g stroke-linejoin="miter" stroke-opacity="1.0" fill-opacity="0.0" stroke="rgb(0,0,0)" stroke-width="3.426825100444049" fill="rgb(0,0,0)" stroke-linecap="butt" stroke-miterlimit="10.0"><path d="M 378.1953,283.3382 l 41.4110,-154.5481 c -56.5185,-15.1441 -116.0276,-15.1441 -172.5460 -0.0000l 41.4110,154.5481 c 29.3896,-7.8749 60.3343,-7.8749 89.7239 -0.0000Z"/></g><g stroke-linejoin="miter" stroke-opacity="1.0" fill-opacity="0.0" stroke="rgb(0,0,0)" stroke-width="3.426825100444049" fill="rgb(0,0,0)" stroke-linecap="butt" stroke-miterlimit="10.0"><path d="M 455.8985,328.2002 l 113.1371,-113.1371 c -41.3744,-41.3744 -92.9108,-71.1289 -149.4292 -86.2730l -41.4110,154.5481 c 29.3896,7.8749 56.1885,23.3473 77.7032 44.8620Z"/></g><g stroke-linejoin="miter" stroke-opacity="1.0" fill-opacity="0.0" stroke="rgb(0,0,0)" stroke-width="3.426825100444049" fill="rgb(0,0,0)" stroke-linecap="butt" stroke-miterlimit="10.0"><path d="M 500.7605,405.9034 l 154.5481,-41.4110 c -15.1441,-56.5185 -44.8986,-108.0549 -86.2730 -149.4292l -113.1371,113.1371 c 21.5147,21.5147 36.9870,48.3136 44.8620 77.7032Z"/></g><g stroke-linejoin="miter" stroke-opacity="1.0" fill-opacity="0.0" stroke="rgb(0,0,0)" stroke-width="3.426825100444049" fill="rgb(0,0,0)" stroke-linecap="butt" stroke-miterlimit="10.0"><path d="M 500.7605,495.6274 l 154.5481,41.4110 c 15.1441,-56.5185 15.1441,-116.0276 0.0000 -172.5460l -154.5481,41.4110 c 7.8749,29.3896 7.8749,60.3343 -0.0000 89.7239Z"/></g><g stroke-linejoin="miter" stroke-opacity="1.0" fill-opacity="0.0" stroke="rgb(0,0,0)" stroke-width="0.0" fill="rgb(0,0,0)" stroke-linecap="butt" stroke-miterlimit="10.0"><path d="M 179.1325,651.1824 l -33.3333,57.7350 l 57.7350,33.3333 l 33.3333,-57.7350 Z"/></g><g stroke-linejoin="miter" stroke-opacity="1.0" fill-opacity="1.0" font-size="66.66666666666667px" stroke="rgb(0,0,0)" stroke-width="3.426825100444049" fill="rgb(0,0,0)" stroke-linecap="butt" stroke-miterlimit="10.0"><text dominant-baseline="middle" transform="matrix(-0.8660,-0.5000,0.5000,-0.8660,191.3333,696.7166)" stroke="none" text-anchor="middle">E#</text></g><g stroke-linejoin="miter" stroke-opacity="1.0" fill-opacity="0.0" stroke="rgb(0,0,0)" stroke-width="0.0" fill="rgb(0,0,0)" stroke-linecap="butt" stroke-miterlimit="10.0"><path d="M 300.0000,696.7654 l 0.0000,66.6667 l 66.6667,-0.0000 l -0.0000,-66.6667 Z"/></g><g stroke-linejoin="miter" stroke-opacity="1.0" fill-opacity="1.0" font-size="66.66666666666667px" stroke="rgb(0,0,0)" stroke-width="3.426825100444049" fill="rgb(0,0,0)" stroke-linecap="butt" stroke-miterlimit="10.0"><text dominant-baseline="middle" transform="matrix(-1.0000,0.0000,-0.0000,-1.0000,333.3333,730.0987)" stroke="none" text-anchor="middle">A#</text></g><g stroke-linejoin="miter" stroke-opacity="1.0" fill-opacity="0.0" stroke="rgb(0,0,0)" stroke-width="0.0" fill="rgb(0,0,0)" stroke-linecap="butt" stroke-miterlimit="10.0"><path d="M 425.1325,676.4328 l 33.3333,57.7350 l 57.7350,-33.3333 l -33.3333,-57.7350 Z"/></g><g stroke-linejoin="miter" stroke-opacity="1.0" fill-opacity="1.0" font-size="66.66666666666667px" stroke="rgb(0,0,0)" stroke-width="3.426825100444049" fill="rgb(0,0,0)" stroke-linecap="butt" stroke-miterlimit="10.0"><text dominant-baseline="middle" transform="matrix(-0.8660,0.5000,-0.5000,-0.8660,470.6667,688.6337)" stroke="none" text-anchor="middle">D#</text></g><g stroke-linejoin="miter" stroke-opacity="1.0" fill-opacity="0.0" stroke="rgb(0,0,0)" stroke-width="0.0" fill="rgb(0,0,0)" stroke-linecap="butt" stroke-miterlimit="10.0"><path d="M 521.6260,597.9662 l 57.7350,33.3333 l 33.3333,-57.7350 l -57.7350,-33.3333 Z"/></g><g stroke-linejoin="miter" stroke-opacity="1.0" fill-opacity="1.0" font-size="66.66666666666667px" stroke="rgb(0,0,0)" stroke-width="3.426825100444049" fill="rgb(0,0,0)" stroke-linecap="butt" stroke-miterlimit="10.0"><text dominant-baseline="middle" transform="matrix(-0.5000,0.8660,-0.8660,-0.5000,567.1602,585.7654)" stroke="none" text-anchor="middle">G#</text></g><g stroke-linejoin="miter" stroke-opacity="1.0" fill-opacity="0.0" stroke="rgb(0,0,0)" stroke-width="0.0" fill="rgb(0,0,0)" stroke-linecap="butt" stroke-miterlimit="10.0"><path d="M 565.3333,484.0987 l 66.6667,-0.0000 l -0.0000,-66.6667 l -66.6667,0.0000 Z"/></g><g stroke-linejoin="miter" stroke-opacity="1.0" fill-opacity="1.0" font-size="66.66666666666667px" stroke="rgb(0,0,0)" stroke-width="3.426825100444049" fill="rgb(0,0,0)" stroke-linecap="butt" stroke-miterlimit="10.0"><text dominant-baseline="middle" transform="matrix(0.0000,1.0000,-1.0000,0.0000,598.6667,450.7654)" stroke="none" text-anchor="middle">C#</text></g><g stroke-linejoin="miter" stroke-opacity="1.0" fill-opacity="0.0" stroke="rgb(0,0,0)" stroke-width="0.0" fill="rgb(0,0,0)" stroke-linecap="butt" stroke-miterlimit="10.0"><path d="M 546.8764,365.9662 l 57.7350,-33.3333 l -33.3333,-57.7350 l -57.7350,33.3333 Z"/></g><g stroke-linejoin="miter" stroke-opacity="1.0" fill-opacity="1.0" font-size="66.66666666666667px" stroke="rgb(0,0,0)" stroke-width="3.426825100444049" fill="rgb(0,0,0)" stroke-linecap="butt" stroke-miterlimit="10.0"><text dominant-baseline="middle" transform="matrix(0.5000,0.8660,-0.8660,0.5000,559.0773,320.4321)" stroke="none" text-anchor="middle">F#</text></g><g stroke-linejoin="miter" stroke-opacity="1.0" fill-opacity="0.0" stroke="rgb(0,0,0)" stroke-width="0.0" fill="rgb(0,0,0)" stroke-linecap="butt" stroke-miterlimit="10.0"><path d="M 473.5342,274.5971 l 33.3333,-57.7350 l -57.7350,-33.3333 l -33.3333,57.7350 Z"/></g><g stroke-linejoin="miter" stroke-opacity="1.0" fill-opacity="1.0" font-size="66.66666666666667px" stroke="rgb(0,0,0)" stroke-width="3.426825100444049" fill="rgb(0,0,0)" stroke-linecap="butt" stroke-miterlimit="10.0"><text dominant-baseline="middle" transform="matrix(0.8660,0.5000,-0.5000,0.8660,461.3333,229.0629)" stroke="none" text-anchor="middle">B</text></g><g stroke-linejoin="miter" stroke-opacity="1.0" fill-opacity="0.0" stroke="rgb(0,0,0)" stroke-width="0.0" fill="rgb(0,0,0)" stroke-linecap="butt" stroke-miterlimit="10.0"><path d="M 366.6667,232.7654 l -0.0000,-66.6667 l -66.6667,0.0000 l 0.0000,66.6667 Z"/></g><g stroke-linejoin="miter" stroke-opacity="1.0" fill-opacity="1.0" font-size="66.66666666666667px" stroke="rgb(0,0,0)" stroke-width="3.426825100444049" fill="rgb(0,0,0)" stroke-linecap="butt" stroke-miterlimit="10.0"><text dominant-baseline="middle" transform="matrix(1.0000,-0.0000,0.0000,1.0000,333.3333,199.4321)" stroke="none" text-anchor="middle">E</text></g><g stroke-linejoin="miter" stroke-opacity="1.0" fill-opacity="0.0" stroke="rgb(0,0,0)" stroke-width="0.0" fill="rgb(0,0,0)" stroke-linecap="butt" stroke-miterlimit="10.0"><path d="M 255.5342,249.3466 l -33.3333,-57.7350 l -57.7350,33.3333 l 33.3333,57.7350 Z"/></g><g stroke-linejoin="miter" stroke-opacity="1.0" fill-opacity="1.0" font-size="66.66666666666667px" stroke="rgb(0,0,0)" stroke-width="3.426825100444049" fill="rgb(0,0,0)" stroke-linecap="butt" stroke-miterlimit="10.0"><text dominant-baseline="middle" transform="matrix(0.8660,-0.5000,0.5000,0.8660,210.0000,237.1458)" stroke="none" text-anchor="middle">A</text></g><g stroke-linejoin="miter" stroke-opacity="1.0" fill-opacity="0.0" stroke="rgb(0,0,0)" stroke-width="0.0" fill="rgb(0,0,0)" stroke-linecap="butt" stroke-miterlimit="10.0"><path d="M 169.2894,317.5645 l -57.7350,-33.3333 l -33.3333,57.7350 l 57.7350,33.3333 Z"/></g><g stroke-linejoin="miter" stroke-opacity="1.0" fill-opacity="1.0" font-size="66.66666666666667px" stroke="rgb(0,0,0)" stroke-width="3.426825100444049" fill="rgb(0,0,0)" stroke-linecap="butt" stroke-miterlimit="10.0"><text dominant-baseline="middle" transform="matrix(0.5000,-0.8660,0.8660,0.5000,123.7552,329.7654)" stroke="none" text-anchor="middle">D</text></g><g stroke-linejoin="miter" stroke-opacity="1.0" fill-opacity="0.0" stroke="rgb(0,0,0)" stroke-width="0.0" fill="rgb(0,0,0)" stroke-linecap="butt" stroke-miterlimit="10.0"><path d="M 129.3333,417.4321 l -66.6667,0.0000 l 0.0000,66.6667 l 66.6667,-0.0000 Z"/></g><g stroke-linejoin="miter" stroke-opacity="1.0" fill-opacity="1.0" font-size="66.66666666666667px" stroke="rgb(0,0,0)" stroke-width="3.426825100444049" fill="rgb(0,0,0)" stroke-linecap="butt" stroke-miterlimit="10.0"><text dominant-baseline="middle" transform="matrix(-0.0000,-1.0000,1.0000,-0.0000,96.0000,450.7654)" stroke="none" text-anchor="middle">G</text></g><g stroke-linejoin="miter" stroke-opacity="1.0" fill-opacity="0.0" stroke="rgb(0,0,0)" stroke-width="0.0" fill="rgb(0,0,0)" stroke-linecap="butt" stroke-miterlimit="10.0"><path d="M 144.0389,521.5645 l -57.7350,33.3333 l 33.3333,57.7350 l 57.7350,-33.3333 Z"/></g><g stroke-linejoin="miter" stroke-opacity="1.0" fill-opacity="1.0" font-size="66.66666666666667px" stroke="rgb(0,0,0)" stroke-width="3.426825100444049" fill="rgb(0,0,0)" stroke-linecap="butt" stroke-miterlimit="10.0"><text dominant-baseline="middle" transform="matrix(-0.5000,-0.8660,0.8660,-0.5000,131.8381,567.0987)" stroke="none" text-anchor="middle">C</text></g><g stroke-linejoin="miter" stroke-opacity="1.0" fill-opacity="0.0" stroke="rgb(0,0,0)" stroke-width="0.0" fill="rgb(0,0,0)" stroke-linecap="butt" stroke-miterlimit="10.0"><path d="M 207.1325,602.6850 l -33.3333,57.7350 l 57.7350,33.3333 l 33.3333,-57.7350 Z"/></g><g stroke-linejoin="miter" stroke-opacity="1.0" fill-opacity="1.0" font-size="66.66666666666667px" stroke="rgb(0,0,0)" stroke-width="3.426825100444049" fill="rgb(0,0,0)" stroke-linecap="butt" stroke-miterlimit="10.0"><text dominant-baseline="middle" transform="matrix(-0.8660,-0.5000,0.5000,-0.8660,219.3333,648.2192)" stroke="none" text-anchor="middle">F</text></g><g stroke-linejoin="miter" stroke-opacity="1.0" fill-opacity="0.0" stroke="rgb(0,0,0)" stroke-width="0.0" fill="rgb(0,0,0)" stroke-linecap="butt" stroke-miterlimit="10.0"><path d="M 300.0000,640.7654 l 0.0000,66.6667 l 66.6667,-0.0000 l -0.0000,-66.6667 Z"/></g><g stroke-linejoin="miter" stroke-opacity="1.0" fill-opacity="1.0" font-size="66.66666666666667px" stroke="rgb(0,0,0)" stroke-width="3.426825100444049" fill="rgb(0,0,0)" stroke-linecap="butt" stroke-miterlimit="10.0"><text dominant-baseline="middle" transform="matrix(-1.0000,0.0000,-0.0000,-1.0000,333.3333,674.0987)" stroke="none" text-anchor="middle">Bb</text></g><g stroke-linejoin="miter" stroke-opacity="1.0" fill-opacity="0.0" stroke="rgb(0,0,0)" stroke-width="0.0" fill="rgb(0,0,0)" stroke-linecap="butt" stroke-miterlimit="10.0"><path d="M 397.1325,627.9354 l 33.3333,57.7350 l 57.7350,-33.3333 l -33.3333,-57.7350 Z"/></g><g stroke-linejoin="miter" stroke-opacity="1.0" fill-opacity="1.0" font-size="66.66666666666667px" stroke="rgb(0,0,0)" stroke-width="3.426825100444049" fill="rgb(0,0,0)" stroke-linecap="butt" stroke-miterlimit="10.0"><text dominant-baseline="middle" transform="matrix(-0.8660,0.5000,-0.5000,-0.8660,442.6667,640.1363)" stroke="none" text-anchor="middle">Eb</text></g><g stroke-linejoin="miter" stroke-opacity="1.0" fill-opacity="0.0" stroke="rgb(0,0,0)" stroke-width="0.0" fill="rgb(0,0,0)" stroke-linecap="butt" stroke-miterlimit="10.0"><path d="M 473.1286,569.9662 l 57.7350,33.3333 l 33.3333,-57.7350 l -57.7350,-33.3333 Z"/></g><g stroke-linejoin="miter" stroke-opacity="1.0" fill-opacity="1.0" font-size="66.66666666666667px" stroke="rgb(0,0,0)" stroke-width="3.426825100444049" fill="rgb(0,0,0)" stroke-linecap="butt" stroke-miterlimit="10.0"><text dominant-baseline="middle" transform="matrix(-0.5000,0.8660,-0.8660,-0.5000,518.6628,557.7654)" stroke="none" text-anchor="middle">Ab</text></g><g stroke-linejoin="miter" stroke-opacity="1.0" fill-opacity="0.0" stroke="rgb(0,0,0)" stroke-width="0.0" fill="rgb(0,0,0)" stroke-linecap="butt" stroke-miterlimit="10.0"><path d="M 509.3333,484.0987 l 66.6667,-0.0000 l -0.0000,-66.6667 l -66.6667,-0.0000 Z"/></g><g stroke-linejoin="miter" stroke-opacity="1.0" fill-opacity="1.0" font-size="66.66666666666667px" stroke="rgb(0,0,0)" stroke-width="3.426825100444049" fill="rgb(0,0,0)" stroke-linecap="butt" stroke-miterlimit="10.0"><text dominant-baseline="middle" transform="matrix(0.0000,1.0000,-1.0000,0.0000,542.6667,450.7654)" stroke="none" text-anchor="middle">Db</text></g><g stroke-linejoin="miter" stroke-opacity="1.0" fill-opacity="0.0" stroke="rgb(0,0,0)" stroke-width="0.0" fill="rgb(0,0,0)" stroke-linecap="butt" stroke-miterlimit="10.0"><path d="M 498.3790,393.9662 l 57.7350,-33.3333 l -33.3333,-57.7350 l -57.7350,33.3333 Z"/></g><g stroke-linejoin="miter" stroke-opacity="1.0" fill-opacity="1.0" font-size="66.66666666666667px" stroke="rgb(0,0,0)" stroke-width="3.426825100444049" fill="rgb(0,0,0)" stroke-linecap="butt" stroke-miterlimit="10.0"><text dominant-baseline="middle" transform="matrix(0.5000,0.8660,-0.8660,0.5000,510.5799,348.4321)" stroke="none" text-anchor="middle">Gb</text></g><g stroke-linejoin="miter" stroke-opacity="1.0" fill-opacity="0.0" stroke="rgb(0,0,0)" stroke-width="0.0" fill="rgb(0,0,0)" stroke-linecap="butt" stroke-miterlimit="10.0"><path d="M 445.5342,323.0945 l 33.3333,-57.7350 l -57.7350,-33.3333 l -33.3333,57.7350 Z"/></g><g stroke-linejoin="miter" stroke-opacity="1.0" fill-opacity="1.0" font-size="66.66666666666667px" stroke="rgb(0,0,0)" stroke-width="3.426825100444049" fill="rgb(0,0,0)" stroke-linecap="butt" stroke-miterlimit="10.0"><text dominant-baseline="middle" transform="matrix(0.8660,0.5000,-0.5000,0.8660,433.3333,277.5603)" stroke="none" text-anchor="middle">Cb</text></g><g stroke-linejoin="miter" stroke-opacity="1.0" fill-opacity="0.0" stroke="rgb(0,0,0)" stroke-width="3.426825100444049" fill="rgb(0,0,0)" stroke-linecap="butt" stroke-miterlimit="10.0"><path d="M 340.0000,450.7654 c 0.0000,-3.6819 -2.9848,-6.6667 -6.6667 -6.6667c -3.6819,-0.0000 -6.6667,2.9848 -6.6667 6.6667c -0.0000,3.6819 2.9848,6.6667 6.6667 6.6667c 3.6819,0.0000 6.6667,-2.9848 6.6667 -6.6667Z"/></g></svg>