<?xml version="1.0" encoding="UTF-8"?>
<!DOCTYPE svg PUBLIC "-//W3C//DTD SVG 1.1//EN"
    "http://www.w3.org/Graphics/SVG/1.1/DTD/svg11.dtd"><svg xmlns="http://www.w3.org/2000/svg" height="400.0000" stroke-opacity="1" viewBox="0 0 400 400" font-size="1" width="400.0000" xmlns:xlink="http://www.w3.org/1999/xlink" stroke="rgb(0,0,0)" version="1.1"><defs></defs><g stroke-linejoin="miter" stroke-opacity="1.0" fill-opacity="0.0" stroke="rgb(0,0,0)" stroke-width="1.5999999999999999" fill="rgb(0,0,0)" stroke-linecap="butt" stroke-miterlimit="10.0"><path d="M 244.2799,34.7452 l 7.4839,-27.9304 c -33.9111,-9.0864 -69.6165,-9.0864 -103.5276 0.0000l 7.4839,27.9304 c 29.0083,-7.7727 59.5515,-7.7727 88.5598 -0.0000Z"/></g><g stroke-linejoin="miter" stroke-opacity="1.0" fill-opacity="0.0" stroke="rgb(0,0,0)" stroke-width="1.5999999999999999" fill="rgb(0,0,0)" stroke-linecap="butt" stroke-miterlimit="10.0"><path d="M 155.7201,34.7452 l -7.4839,-27.9304 c -33.9111,9.0864 -64.8329,26.9392 -89.6575 51.7638l 20.4465,20.4465 c 21.2355,-21.2355 47.6867,-36.5071 76.6950 -44.2799Z"/></g><g stroke-linejoin="miter" stroke-opacity="1.0" fill-opacity="0.0" stroke="rgb(0,0,0)" stroke-width="1.5999999999999999" fill="rgb(0,0,0)" stroke-linecap="butt" stroke-miterlimit="10.0"><path d="M 79.0251,79.0251 l -20.4465,-20.4465 c -24.8246,24.8246 -42.6774,55.7465 -51.7638 89.6575l 27.9304,7.4839 c 7.7727,-29.0083 23.0444,-55.4595 44.2799 -76.6950Z"/></g><g stroke-linejoin="miter" stroke-opacity="1.0" fill-opacity="0.0" stroke="rgb(0,0,0)" stroke-width="1.5999999999999999" fill="rgb(0,0,0)" stroke-linecap="butt" stroke-miterlimit="10.0"><path d="M 34.7452,155.7201 l -27.9304,-7.4839 c -9.0864,33.9111 -9.0864,69.6165 0.0000 103.5276l 27.9304,-7.4839 c -7.7727,-29.0083 -7.7727,-59.5515 -0.0000 -88.5598Z"/></g><g stroke-linejoin="miter" stroke-opacity="1.0" fill-opacity="0.0" stroke="rgb(0,0,0)" stroke-width="1.5999999999999999" fill="rgb(0,0,0)" stroke-linecap="butt" stroke-miterlimit="10.0"><path d="M 34.7452,244.2799 l -27.9304,7.4839 c 9.0864,33.9111 26.9392,64.8329 51.7638 89.6575l 20.4465,-20.4465 c -21.2355,-21.2355 -36.5071,-47.6867 -44.2799 -76.6950Z"/></g><g stroke-linejoin="miter" stroke-opacity="1.0" fill-opacity="0.0" stroke="rgb(0,0,0)" stroke-width="1.5999999999999999" fill="rgb(0,0,0)" stroke-linecap="butt" stroke-miterlimit="10.0"><path d="M 79.0251,320.9749 l -20.4465,20.4465 c 24.8246,24.8246 55.7465,42.6774 89.6575 51.7638l 7.4839,-27.9304 c -29.0083,-7.7727 -55.4595,-23.0444 -76.6950 -44.2799Z"/></g><g stroke-linejoin="miter" stroke-opacity="1.0" fill-opacity="0.0" stroke="rgb(0,0,0)" stroke-width="1.5999999999999999" fill="rgb(0,0,0)" stroke-linecap="butt" stroke-miterlimit="10.0"><path d="M 155.7201,365.2548 l -7.4839,27.9304 c 33.9111,9.0864 69.6165,9.0864 103.5276 -0.0000l -7.4839,-27.9304 c -29.0083,7.7727 -59.5515,7.7727 -88.5598 0.0000Z"/></g><g stroke-linejoin="miter" stroke-opacity="1.0" fill-opacity="0.0" stroke="rgb(0,0,0)" stroke-width="1.5999999999999999" fill="rgb(0,0,0)" stroke-linecap="butt" stroke-miterlimit="10.0"><path d="M 244.2799,365.2548 l 7.4839,27.9304 c 33.9111,-9.0864 64.8329,-26.9392 89.6575 -51.7638l -20.4465,-20.4465 c -21.2355,21.2355 -47.6867,36.5071 -76.6950 44.2799Z"/></g><g stroke-linejoin="miter" stroke-opacity="1.0" fill-opacity="0.0" stroke="rgb(0,0,0)" stroke-width="1.5999999999999999" fill="rgb(0,0,0)" stroke-linecap="butt" stroke-miterlimit="10.0"><path d="M 320.9749,320.9749 l 20.4465,20.4465 c 24.8246,-24.8246 42.6774,-55.7465 51.7638 -89.6575l -27.9304,-7.4839 c -7.7727,29.0083 -23.0444,55.4595 -44.2799 76.6950Z"/></g><g stroke-linejoin="miter" stroke-opacity="1.0" fill-opacity="0.0" stroke="rgb(0,0,0)" stroke-width="1.5999999999999999" fill="rgb(0,0,0)" stroke-linecap="butt" stroke-miterlimit="10.0"><path d="M 365.2548,244.2799 l 27.9304,7.4839 c 9.0864,-33.9111 9.0864,-69.6165 -0.0000 -103.5276l -27.9304,7.4839 c 7.7727,29.0083 7.7727,59.5515 0.0000 88.5598Z"/></g><g stroke-linejoin="miter" stroke-opacity="1.0" fill-opacity="0.0" stroke="rgb(0,0,0)" stroke-width="1.5999999999999999" fill="rgb(0,0,0)" stroke-linecap="butt" stroke-miterlimit="10.0"><path d="M 365.2548,155.7201 l 27.9304,-7.4839 c -9.0864,-33.9111 -26.9392,-64.8329 -51.7638 -89.6575l -20.4465,20.4465 c 21.2355,21.2355 36.5071,47.6867 44.2799 76.6950Z"/></g><g stroke-linejoin="miter" stroke-opacity="1.0" fill-opacity="0.0" stroke="rgb(0,0,0)" stroke-width="1.5999999999999999" fill="rgb(0,0,0)" stroke-linecap="butt" stroke-miterlimit="10.0"><path d="M 320.9749,79.0251 l 20.4465,-20.4465 c -24.8246,-24.8246 -55.7465,-42.6774 -89.6575 -51.7638l -7.4839,27.9304 c 29.0083,7.7727 55.4595,23.0444 76.6950 44.2799Z"/></g><g stroke-linejoin="miter" stroke-opacity="1.0" fill-opacity="0.0" stroke="rgb(0,0,0)" stroke-width="0.0" fill="rgb(0,0,0)" stroke-linecap="butt" stroke-miterlimit="10.0"><path d="M 212.0482,28.9157 l -0.0000,-24.0964 l -24.0964,0.0000 l 0.0000,24.0964 Z"/></g><g stroke-linejoin="miter" stroke-opacity="1.0" fill-opacity="1.0" font-size="24.096385542168672px" stroke="rgb(0,0,0)" stroke-width="1.5999999999999999" fill="rgb(0,0,0)" stroke-linecap="butt" stroke-miterlimit="10.0"><text dominant-baseline="middle" transform="matrix(1.0000,-0.0000,0.0000,1.0000,200.0000,16.8675)" stroke="none" text-anchor="middle">VI</text></g><g stroke-linejoin="miter" stroke-opacity="1.0" fill-opacity="0.0" stroke="rgb(0,0,0)" stroke-width="0.0" fill="rgb(0,0,0)" stroke-linecap="butt" stroke-miterlimit="10.0"><path d="M 124.8919,45.8125 l -12.0482,-20.8681 l -20.8681,12.0482 l 12.0482,20.8681 Z"/></g><g stroke-linejoin="miter" stroke-opacity="1.0" fill-opacity="1.0" font-size="24.096385542168672px" stroke="rgb(0,0,0)" stroke-width="1.5999999999999999" fill="rgb(0,0,0)" stroke-linecap="butt" stroke-miterlimit="10.0"><text dominant-baseline="middle" transform="matrix(0.8660,-0.5000,0.5000,0.8660,108.4337,41.4026)" stroke="none" text-anchor="middle">II</text></g><g stroke-linejoin="miter" stroke-opacity="1.0" fill-opacity="0.0" stroke="rgb(0,0,0)" stroke-width="0.0" fill="rgb(0,0,0)" stroke-linecap="butt" stroke-miterlimit="10.0"><path d="M 57.8607,104.0238 l -20.8681,-12.0482 l -12.0482,20.8681 l 20.8681,12.0482 Z"/></g><g stroke-linejoin="miter" stroke-opacity="1.0" fill-opacity="1.0" font-size="24.096385542168672px" stroke="rgb(0,0,0)" stroke-width="1.5999999999999999" fill="rgb(0,0,0)" stroke-linecap="butt" stroke-miterlimit="10.0"><text dominant-baseline="middle" transform="matrix(0.5000,-0.8660,0.8660,0.5000,41.4026,108.4337)" stroke="none" text-anchor="middle">V</text></g><g stroke-linejoin="miter" stroke-opacity="1.0" fill-opacity="0.0" stroke="rgb(0,0,0)" stroke-width="0.0" fill="rgb(0,0,0)" stroke-linecap="butt" stroke-miterlimit="10.0"><path d="M 28.9157,187.9518 l -24.0964,0.0000 l 0.0000,24.0964 l 24.0964,-0.0000 Z"/></g><g stroke-linejoin="miter" stroke-opacity="1.0" fill-opacity="1.0" font-size="24.096385542168672px" stroke="rgb(0,0,0)" stroke-width="1.5999999999999999" fill="rgb(0,0,0)" stroke-linecap="butt" stroke-miterlimit="10.0"><text dominant-baseline="middle" transform="matrix(-0.0000,-1.0000,1.0000,-0.0000,16.8675,200.0000)" stroke="none" text-anchor="middle">I</text></g><g stroke-linejoin="miter" stroke-opacity="1.0" fill-opacity="0.0" stroke="rgb(0,0,0)" stroke-width="0.0" fill="rgb(0,0,0)" stroke-linecap="butt" stroke-miterlimit="10.0"><path d="M 45.8125,275.1081 l -20.8681,12.0482 l 12.0482,20.8681 l 20.8681,-12.0482 Z"/></g><g stroke-linejoin="miter" stroke-opacity="1.0" fill-opacity="1.0" font-size="24.096385542168672px" stroke="rgb(0,0,0)" stroke-width="1.5999999999999999" fill="rgb(0,0,0)" stroke-linecap="butt" stroke-miterlimit="10.0"><text dominant-baseline="middle" transform="matrix(-0.5000,-0.8660,0.8660,-0.5000,41.4026,291.5663)" stroke="none" text-anchor="middle">IV</text></g><g stroke-linejoin="miter" stroke-opacity="1.0" fill-opacity="0.0" stroke="rgb(0,0,0)" stroke-width="0.0" fill="rgb(0,0,0)" stroke-linecap="butt" stroke-miterlimit="10.0"><path d="M 104.0238,342.1393 l -12.0482,20.8681 l 20.8681,12.0482 l 12.0482,-20.8681 Z"/></g><g stroke-linejoin="miter" stroke-opacity="1.0" fill-opacity="1.0" font-size="24.096385542168672px" stroke="rgb(0,0,0)" stroke-width="1.5999999999999999" fill="rgb(0,0,0)" stroke-linecap="butt" stroke-miterlimit="10.0"><text dominant-baseline="middle" transform="matrix(-0.8660,-0.5000,0.5000,-0.8660,108.4337,358.5974)" stroke="none" text-anchor="middle">VII</text></g><g stroke-linejoin="miter" stroke-opacity="1.0" fill-opacity="0.0" stroke="rgb(0,0,0)" stroke-width="0.0" fill="rgb(0,0,0)" stroke-linecap="butt" stroke-miterlimit="10.0"><path d="M 187.9518,371.0843 l 0.0000,24.0964 l 24.0964,-0.0000 l -0.0000,-24.0964 Z"/></g><g stroke-linejoin="miter" stroke-opacity="1.0" fill-opacity="1.0" font-size="24.096385542168672px" stroke="rgb(0,0,0)" stroke-width="1.5999999999999999" fill="rgb(0,0,0)" stroke-linecap="butt" stroke-miterlimit="10.0"><text dominant-baseline="middle" transform="matrix(-1.0000,0.0000,-0.0000,-1.0000,200.0000,383.1325)" stroke="none" text-anchor="middle">III</text></g><g stroke-linejoin="miter" stroke-opacity="1.0" fill-opacity="0.0" stroke="rgb(0,0,0)" stroke-width="0.0" fill="rgb(0,0,0)" stroke-linecap="butt" stroke-miterlimit="10.0"><path d="M 275.1081,354.1875 l 12.0482,20.8681 l 20.8681,-12.0482 l -12.0482,-20.8681 Z"/></g><g stroke-linejoin="miter" stroke-opacity="1.0" fill-opacity="1.0" font-size="24.096385542168672px" stroke="rgb(0,0,0)" stroke-width="1.5999999999999999" fill="rgb(0,0,0)" stroke-linecap="butt" stroke-miterlimit="10.0"><text dominant-baseline="middle" transform="matrix(-0.8660,0.5000,-0.5000,-0.8660,291.5663,358.5974)" stroke="none" text-anchor="middle">VI</text></g><g stroke-linejoin="miter" stroke-opacity="1.0" fill-opacity="0.0" stroke="rgb(0,0,0)" stroke-width="0.0" fill="rgb(0,0,0)" stroke-linecap="butt" stroke-miterlimit="10.0"><path d="M 342.1393,295.9762 l 20.8681,12.0482 l 12.0482,-20.8681 l -20.8681,-12.0482 Z"/></g><g stroke-linejoin="miter" stroke-opacity="1.0" fill-opacity="1.0" font-size="24.096385542168676px" stroke="rgb(0,0,0)" stroke-width="1.5999999999999999" fill="rgb(0,0,0)" stroke-linecap="butt" stroke-miterlimit="10.0"><text dominant-baseline="middle" transform="matrix(-0.5000,0.8660,-0.8660,-0.5000,358.5974,291.5663)" stroke="none" text-anchor="middle">II</text></g><g stroke-linejoin="miter" stroke-opacity="1.0" fill-opacity="0.0" stroke="rgb(0,0,0)" stroke-width="0.0" fill="rgb(0,0,0)" stroke-linecap="butt" stroke-miterlimit="10.0"><path d="M 371.0843,212.0482 l 24.0964,-0.0000 l -0.0000,-24.0964 l -24.0964,-0.0000 Z"/></g><g stroke-linejoin="miter" stroke-opacity="1.0" fill-opacity="1.0" font-size="24.096385542168672px" stroke="rgb(0,0,0)" stroke-width="1.5999999999999999" fill="rgb(0,0,0)" stroke-linecap="butt" stroke-miterlimit="10.0"><text dominant-baseline="middle" transform="matrix(0.0000,1.0000,-1.0000,0.0000,383.1325,200.0000)" stroke="none" text-anchor="middle">V</text></g><g stroke-linejoin="miter" stroke-opacity="1.0" fill-opacity="0.0" stroke="rgb(0,0,0)" stroke-width="0.0" fill="rgb(0,0,0)" stroke-linecap="butt" stroke-miterlimit="10.0"><path d="M 354.1875,124.8919 l 20.8681,-12.0482 l -12.0482,-20.8681 l -20.8681,12.0482 Z"/></g><g stroke-linejoin="miter" stroke-opacity="1.0" fill-opacity="1.0" font-size="24.096385542168672px" stroke="rgb(0,0,0)" stroke-width="1.5999999999999999" fill="rgb(0,0,0)" stroke-linecap="butt" stroke-miterlimit="10.0"><text dominant-baseline="middle" transform="matrix(0.5000,0.8660,-0.8660,0.5000,358.5974,108.4337)" stroke="none" text-anchor="middle">I</text></g><g stroke-linejoin="miter" stroke-opacity="1.0" fill-opacity="0.0" stroke="rgb(0,0,0)" stroke-width="0.0" fill="rgb(0,0,0)" stroke-linecap="butt" stroke-miterlimit="10.0"><path d="M 295.9762,57.8607 l 12.0482,-20.8681 l -20.8681,-12.0482 l -12.0482,20.8681 Z"/></g><g stroke-linejoin="miter" stroke-opacity="1.0" fill-opacity="1.0" font-size="24.096385542168672px" stroke="rgb(0,0,0)" stroke-width="1.5999999999999999" fill="rgb(0,0,0)" stroke-linecap="butt" stroke-miterlimit="10.0"><text dominant-baseline="middle" transform="matrix(0.8660,0.5000,-0.5000,0.8660,291.5663,41.4026)" stroke="none" text-anchor="middle">III-IV</text></g><g stroke-linejoin="miter" stroke-opacity="1.0" fill-opacity="1.0" stroke="rgb(0,0,0)" stroke-width="1.5999999999999999" fill="rgb(255,192,203)" stroke-linecap="butt" stroke-miterlimit="10.0"><path d="M 113.1025,286.8975 l -32.3736,32.3736 c 20.9364,20.9364 47.0151,35.9930 75.6148 43.6562l 11.8495,-44.2231 c -20.8369,-5.5832 -39.8371,-16.5530 -55.0908 -31.8067Z"/></g><g stroke-linejoin="miter" stroke-opacity="1.0" fill-opacity="1.0" stroke="rgb(0,0,0)" stroke-width="1.5999999999999999" fill="rgb(255,228,196)" stroke-linecap="butt" stroke-miterlimit="10.0"><path d="M 168.1933,318.7041 l -11.8495,44.2231 c 28.5997,7.6633 58.7127,7.6633 87.3124 0.0000l -11.8495,-44.2231 c -20.8369,5.5832 -42.7764,5.5832 -63.6134 -0.0000Z"/></g><g stroke-linejoin="miter" stroke-opacity="1.0" fill-opacity="1.0" stroke="rgb(0,0,0)" stroke-width="1.5999999999999999" fill="rgb(255,228,196)" stroke-linecap="butt" stroke-miterlimit="10.0"><path d="M 231.8067,318.7041 l 11.8495,44.2231 c 28.5997,-7.6633 54.6784,-22.7198 75.6148 -43.6562l -32.3736,-32.3736 c -15.2537,15.2537 -34.2539,26.2234 -55.0908 31.8067Z"/></g><g stroke-linejoin="miter" stroke-opacity="1.0" fill-opacity="1.0" stroke="rgb(0,0,0)" stroke-width="1.5999999999999999" fill="rgb(255,228,196)" stroke-linecap="butt" stroke-miterlimit="10.0"><path d="M 286.8975,286.8975 l 32.3736,32.3736 c 20.9364,-20.9364 35.9930,-47.0151 43.6562 -75.6148l -44.2231,-11.8495 c -5.5832,20.8369 -16.5530,39.8371 -31.8067 55.0908Z"/></g><g stroke-linejoin="miter" stroke-opacity="1.0" fill-opacity="1.0" stroke="rgb(0,0,0)" stroke-width="1.5999999999999999" fill="rgb(240,255,240)" stroke-linecap="butt" stroke-miterlimit="10.0"><path d="M 318.7041,231.8067 l 44.2231,11.8495 c 7.6633,-28.5997 7.6633,-58.7127 0.0000 -87.3124l -44.2231,11.8495 c 5.5832,20.8369 5.5832,42.7764 -0.0000 63.6134Z"/></g><g stroke-linejoin="miter" stroke-opacity="1.0" fill-opacity="1.0" stroke="rgb(0,0,0)" stroke-width="1.5999999999999999" fill="rgb(240,255,240)" stroke-linecap="butt" stroke-miterlimit="10.0"><path d="M 318.7041,168.1933 l 44.2231,-11.8495 c -7.6633,-28.5997 -22.7198,-54.6784 -43.6562 -75.6148l -32.3736,32.3736 c 15.2537,15.2537 26.2234,34.2539 31.8067 55.0908Z"/></g><g stroke-linejoin="miter" stroke-opacity="1.0" fill-opacity="1.0" stroke="rgb(0,0,0)" stroke-width="1.5999999999999999" fill="rgb(240,255,240)" stroke-linecap="butt" stroke-miterlimit="10.0"><path d="M 286.8975,113.1025 l 32.3736,-32.3736 c -20.9364,-20.9364 -47.0151,-35.9930 -75.6148 -43.6562l -11.8495,44.2231 c 20.8369,5.5832 39.8371,16.5530 55.0908 31.8067Z"/></g><g stroke-linejoin="miter" stroke-opacity="1.0" fill-opacity="0.0" font-size="14.457831325301203px" stroke="rgb(0,0,0)" stroke-width="0.0" fill="rgb(0,0,0)" stroke-linecap="butt" stroke-miterlimit="10.0"><path d="M 118.4816,317.0976 l -12.0482,20.8681 l 20.8681,12.0482 l 12.0482,-20.8681 Z"/></g><g stroke-linejoin="miter" stroke-opacity="1.0" fill-opacity="1.0" font-size="14.457831325301203px" stroke="rgb(0,0,0)" stroke-width="1.5999999999999999" fill="rgb(0,0,0)" stroke-linecap="butt" stroke-miterlimit="10.0"><text dominant-baseline="middle" transform="matrix(-0.8660,-0.5000,0.5000,-0.8660,122.8916,333.5557)" stroke="none" text-anchor="middle">Locrian</text></g><g stroke-linejoin="miter" stroke-opacity="1.0" fill-opacity="0.0" font-size="14.457831325301203px" stroke="rgb(0,0,0)" stroke-width="0.0" fill="rgb(0,0,0)" stroke-linecap="butt" stroke-miterlimit="10.0"><path d="M 187.9518,342.1687 l 0.0000,24.0964 l 24.0964,-0.0000 l -0.0000,-24.0964 Z"/></g><g stroke-linejoin="miter" stroke-opacity="1.0" fill-opacity="1.0" font-size="14.457831325301203px" stroke="rgb(0,0,0)" stroke-width="1.5999999999999999" fill="rgb(0,0,0)" stroke-linecap="butt" stroke-miterlimit="10.0"><text dominant-baseline="middle" transform="matrix(-1.0000,0.0000,-0.0000,-1.0000,200.0000,354.2169)" stroke="none" text-anchor="middle">Phrygian</text></g><g stroke-linejoin="miter" stroke-opacity="1.0" fill-opacity="0.0" font-size="14.457831325301203px" stroke="rgb(0,0,0)" stroke-width="0.0" fill="rgb(0,0,0)" stroke-linecap="butt" stroke-miterlimit="10.0"><path d="M 260.6503,329.1458 l 12.0482,20.8681 l 20.8681,-12.0482 l -12.0482,-20.8681 Z"/></g><g stroke-linejoin="miter" stroke-opacity="1.0" fill-opacity="1.0" font-size="14.457831325301203px" stroke="rgb(0,0,0)" stroke-width="1.5999999999999999" fill="rgb(0,0,0)" stroke-linecap="butt" stroke-miterlimit="10.0"><text dominant-baseline="middle" transform="matrix(-0.8660,0.5000,-0.5000,-0.8660,277.1084,333.5557)" stroke="none" text-anchor="middle">Aeolian</text></g><g stroke-linejoin="miter" stroke-opacity="1.0" fill-opacity="0.0" font-size="14.457831325301203px" stroke="rgb(0,0,0)" stroke-width="0.0" fill="rgb(0,0,0)" stroke-linecap="butt" stroke-miterlimit="10.0"><path d="M 317.0976,281.5184 l 20.8681,12.0482 l 12.0482,-20.8681 l -20.8681,-12.0482 Z"/></g><g stroke-linejoin="miter" stroke-opacity="1.0" fill-opacity="1.0" font-size="14.457831325301203px" stroke="rgb(0,0,0)" stroke-width="1.5999999999999999" fill="rgb(0,0,0)" stroke-linecap="butt" stroke-miterlimit="10.0"><text dominant-baseline="middle" transform="matrix(-0.5000,0.8660,-0.8660,-0.5000,333.5557,277.1084)" stroke="none" text-anchor="middle">Dorian</text></g><g stroke-linejoin="miter" stroke-opacity="1.0" fill-opacity="0.0" font-size="14.457831325301203px" stroke="rgb(0,0,0)" stroke-width="0.0" fill="rgb(0,0,0)" stroke-linecap="butt" stroke-miterlimit="10.0"><path d="M 342.1687,212.0482 l 24.0964,-0.0000 l -0.0000,-24.0964 l -24.0964,-0.0000 Z"/></g><g stroke-linejoin="miter" stroke-opacity="1.0" fill-opacity="1.0" font-size="14.457831325301203px" stroke="rgb(0,0,0)" stroke-width="1.5999999999999999" fill="rgb(0,0,0)" stroke-linecap="butt" stroke-miterlimit="10.0"><text dominant-baseline="middle" transform="matrix(0.0000,1.0000,-1.0000,0.0000,354.2169,200.0000)" stroke="none" text-anchor="middle">Mixolydian</text></g><g stroke-linejoin="miter" stroke-opacity="1.0" fill-opacity="0.0" font-size="14.457831325301203px" stroke="rgb(0,0,0)" stroke-width="0.0" fill="rgb(0,0,0)" stroke-linecap="butt" stroke-miterlimit="10.0"><path d="M 329.1458,139.3497 l 20.8681,-12.0482 l -12.0482,-20.8681 l -20.8681,12.0482 Z"/></g><g stroke-linejoin="miter" stroke-opacity="1.0" fill-opacity="1.0" font-size="14.457831325301203px" stroke="rgb(0,0,0)" stroke-width="1.5999999999999999" fill="rgb(0,0,0)" stroke-linecap="butt" stroke-miterlimit="10.0"><text dominant-baseline="middle" transform="matrix(0.5000,0.8660,-0.8660,0.5000,333.5557,122.8916)" stroke="none" text-anchor="middle">Ionian</text></g><g stroke-linejoin="miter" stroke-opacity="1.0" fill-opacity="0.0" font-size="14.457831325301203px" stroke="rgb(0,0,0)" stroke-width="0.0" fill="rgb(0,0,0)" stroke-linecap="butt" stroke-miterlimit="10.0"><path d="M 281.5184,82.9024 l 12.0482,-20.8681 l -20.8681,-12.0482 l -12.0482,20.8681 Z"/></g><g stroke-linejoin="miter" stroke-opacity="1.0" fill-opacity="1.0" font-size="14.457831325301203px" stroke="rgb(0,0,0)" stroke-width="1.5999999999999999" fill="rgb(0,0,0)" stroke-linecap="butt" stroke-miterlimit="10.0"><text dominant-baseline="middle" transform="matrix(0.8660,0.5000,-0.5000,0.8660,277.1084,66.4443)" stroke="none" text-anchor="middle">Lydian</text></g><g stroke-linejoin="miter" stroke-opacity="1.0" fill-opacity="0.0" stroke="rgb(0,0,0)" stroke-width="0.0" fill="rgb(0,0,0)" stroke-linecap="butt" stroke-miterlimit="10.0"><path d="M 129.3250,298.3163 l -12.0482,20.8681 l 20.8681,12.0482 l 12.0482,-20.8681 Z"/></g><g stroke-linejoin="miter" stroke-opacity="1.0" fill-opacity="1.0" font-size="24.096385542168672px" stroke="rgb(0,0,0)" stroke-width="1.5999999999999999" fill="rgb(0,0,0)" stroke-linecap="butt" stroke-miterlimit="10.0"><text dominant-baseline="middle" transform="matrix(-0.8660,-0.5000,0.5000,-0.8660,133.7349,314.7745)" stroke="none" text-anchor="middle">TI</text></g><g stroke-linejoin="miter" stroke-opacity="1.0" fill-opacity="0.0" stroke="rgb(0,0,0)" stroke-width="0.0" fill="rgb(0,0,0)" stroke-linecap="butt" stroke-miterlimit="10.0"><path d="M 187.9518,320.4819 l 0.0000,24.0964 l 24.0964,-0.0000 l -0.0000,-24.0964 Z"/></g><g stroke-linejoin="miter" stroke-opacity="1.0" fill-opacity="1.0" font-size="24.096385542168672px" stroke="rgb(0,0,0)" stroke-width="1.5999999999999999" fill="rgb(0,0,0)" stroke-linecap="butt" stroke-miterlimit="10.0"><text dominant-baseline="middle" transform="matrix(-1.0000,0.0000,-0.0000,-1.0000,200.0000,332.5301)" stroke="none" text-anchor="middle">mi</text></g><g stroke-linejoin="miter" stroke-opacity="1.0" fill-opacity="0.0" stroke="rgb(0,0,0)" stroke-width="0.0" fill="rgb(0,0,0)" stroke-linecap="butt" stroke-miterlimit="10.0"><path d="M 249.8069,310.3645 l 12.0482,20.8681 l 20.8681,-12.0482 l -12.0482,-20.8681 Z"/></g><g stroke-linejoin="miter" stroke-opacity="1.0" fill-opacity="1.0" font-size="24.096385542168672px" stroke="rgb(0,0,0)" stroke-width="1.5999999999999999" fill="rgb(0,0,0)" stroke-linecap="butt" stroke-miterlimit="10.0"><text dominant-baseline="middle" transform="matrix(-0.8660,0.5000,-0.5000,-0.8660,266.2651,314.7745)" stroke="none" text-anchor="middle">la</text></g><g stroke-linejoin="miter" stroke-opacity="1.0" fill-opacity="0.0" stroke="rgb(0,0,0)" stroke-width="0.0" fill="rgb(0,0,0)" stroke-linecap="butt" stroke-miterlimit="10.0"><path d="M 298.3163,270.6750 l 20.8681,12.0482 l 12.0482,-20.8681 l -20.8681,-12.0482 Z"/></g><g stroke-linejoin="miter" stroke-opacity="1.0" fill-opacity="1.0" font-size="24.096385542168676px" stroke="rgb(0,0,0)" stroke-width="1.5999999999999999" fill="rgb(0,0,0)" stroke-linecap="butt" stroke-miterlimit="10.0"><text dominant-baseline="middle" transform="matrix(-0.5000,0.8660,-0.8660,-0.5000,314.7745,266.2651)" stroke="none" text-anchor="middle">re</text></g><g stroke-linejoin="miter" stroke-opacity="1.0" fill-opacity="0.0" stroke="rgb(0,0,0)" stroke-width="0.0" fill="rgb(0,0,0)" stroke-linecap="butt" stroke-miterlimit="10.0"><path d="M 320.4819,212.0482 l 24.0964,-0.0000 l -0.0000,-24.0964 l -24.0964,-0.0000 Z"/></g><g stroke-linejoin="miter" stroke-opacity="1.0" fill-opacity="1.0" font-size="24.096385542168672px" stroke="rgb(0,0,0)" stroke-width="1.5999999999999999" fill="rgb(0,0,0)" stroke-linecap="butt" stroke-miterlimit="10.0"><text dominant-baseline="middle" transform="matrix(0.0000,1.0000,-1.0000,0.0000,332.5301,200.0000)" stroke="none" text-anchor="middle">So</text></g><g stroke-linejoin="miter" stroke-opacity="1.0" fill-opacity="0.0" stroke="rgb(0,0,0)" stroke-width="0.0" fill="rgb(0,0,0)" stroke-linecap="butt" stroke-miterlimit="10.0"><path d="M 310.3645,150.1931 l 20.8681,-12.0482 l -12.0482,-20.8681 l -20.8681,12.0482 Z"/></g><g stroke-linejoin="miter" stroke-opacity="1.0" fill-opacity="1.0" font-size="24.096385542168672px" stroke="rgb(0,0,0)" stroke-width="1.5999999999999999" fill="rgb(0,0,0)" stroke-linecap="butt" stroke-miterlimit="10.0"><text dominant-baseline="middle" transform="matrix(0.5000,0.8660,-0.8660,0.5000,314.7745,133.7349)" stroke="none" text-anchor="middle">Do</text></g><g stroke-linejoin="miter" stroke-opacity="1.0" fill-opacity="0.0" stroke="rgb(0,0,0)" stroke-width="0.0" fill="rgb(0,0,0)" stroke-linecap="butt" stroke-miterlimit="10.0"><path d="M 270.6750,101.6837 l 12.0482,-20.8681 l -20.8681,-12.0482 l -12.0482,20.8681 Z"/></g><g stroke-linejoin="miter" stroke-opacity="1.0" fill-opacity="1.0" font-size="24.096385542168672px" stroke="rgb(0,0,0)" stroke-width="1.5999999999999999" fill="rgb(0,0,0)" stroke-linecap="butt" stroke-miterlimit="10.0"><text dominant-baseline="middle" transform="matrix(0.8660,0.5000,-0.5000,0.8660,266.2651,85.2255)" stroke="none" text-anchor="middle">Fa</text></g><g stroke-linejoin="miter" stroke-opacity="1.0" fill-opacity="0.0" stroke="rgb(0,0,0)" stroke-width="1.5999999999999999" fill="rgb(0,0,0)" stroke-linecap="butt" stroke-miterlimit="10.0"><path d="M 244.3007,244.3007 l 40.8929,40.8929 c 14.9546,-14.9546 25.7093,-33.5822 31.1830 -54.0106l -55.8608,-14.9678 c -2.8464,10.6227 -8.4388,20.3091 -16.2152 28.0855Z"/></g><g stroke-linejoin="miter" stroke-opacity="1.0" fill-opacity="0.0" stroke="rgb(0,0,0)" stroke-width="1.5999999999999999" fill="rgb(0,0,0)" stroke-linecap="butt" stroke-miterlimit="10.0"><path d="M 216.2152,260.5158 l 14.9678,55.8608 c 20.4284,-5.4738 39.0560,-16.2284 54.0106 -31.1830l -40.8929,-40.8929 c -7.7764,7.7764 -17.4627,13.3688 -28.0855 16.2152Z"/></g><g stroke-linejoin="miter" stroke-opacity="1.0" fill-opacity="0.0" stroke="rgb(0,0,0)" stroke-width="1.5999999999999999" fill="rgb(0,0,0)" stroke-linecap="butt" stroke-miterlimit="10.0"><path d="M 183.7848,260.5158 l -14.9678,55.8608 c 20.4284,5.4738 41.9377,5.4738 62.3660 0.0000l -14.9678,-55.8608 c -10.6227,2.8464 -21.8076,2.8464 -32.4303 -0.0000Z"/></g><g stroke-linejoin="miter" stroke-opacity="1.0" fill-opacity="0.0" stroke="rgb(0,0,0)" stroke-width="1.5999999999999999" fill="rgb(0,0,0)" stroke-linecap="butt" stroke-miterlimit="10.0"><path d="M 155.6993,244.3007 l -40.8929,40.8929 c 14.9546,14.9546 33.5822,25.7093 54.0106 31.1830l 14.9678,-55.8608 c -10.6227,-2.8464 -20.3091,-8.4388 -28.0855 -16.2152Z"/></g><g stroke-linejoin="miter" stroke-opacity="1.0" fill-opacity="0.0" stroke="rgb(0,0,0)" stroke-width="1.5999999999999999" fill="rgb(0,0,0)" stroke-linecap="butt" stroke-miterlimit="10.0"><path d="M 139.4842,216.2152 l -55.8608,14.9678 c 5.4738,20.4284 16.2284,39.0560 31.1830 54.0106l 40.8929,-40.8929 c -7.7764,-7.7764 -13.3688,-17.4627 -16.2152 -28.0855Z"/></g><g stroke-linejoin="miter" stroke-opacity="1.0" fill-opacity="0.0" stroke="rgb(0,0,0)" stroke-width="1.5999999999999999" fill="rgb(0,0,0)" stroke-linecap="butt" stroke-miterlimit="10.0"><path d="M 139.4842,183.7848 l -55.8608,-14.9678 c -5.4738,20.4284 -5.4738,41.9377 -0.0000 62.3660l 55.8608,-14.9678 c -2.8464,-10.6227 -2.8464,-21.8076 0.0000 -32.4303Z"/></g><g stroke-linejoin="miter" stroke-opacity="1.0" fill-opacity="0.0" stroke="rgb(0,0,0)" stroke-width="1.5999999999999999" fill="rgb(0,0,0)" stroke-linecap="butt" stroke-miterlimit="10.0"><path d="M 155.6993,155.6993 l -40.8929,-40.8929 c -14.9546,14.9546 -25.7093,33.5822 -31.1830 54.0106l 55.8608,14.9678 c 2.8464,-10.6227 8.4388,-20.3091 16.2152 -28.0855Z"/></g><g stroke-linejoin="miter" stroke-opacity="1.0" fill-opacity="0.0" stroke="rgb(0,0,0)" stroke-width="1.5999999999999999" fill="rgb(0,0,0)" stroke-linecap="butt" stroke-miterlimit="10.0"><path d="M 183.7848,139.4842 l -14.9678,-55.8608 c -20.4284,5.4738 -39.0560,16.2284 -54.0106 31.1830l 40.8929,40.8929 c 7.7764,-7.7764 17.4627,-13.3688 28.0855 -16.2152Z"/></g><g stroke-linejoin="miter" stroke-opacity="1.0" fill-opacity="0.0" stroke="rgb(0,0,0)" stroke-width="1.5999999999999999" fill="rgb(0,0,0)" stroke-linecap="butt" stroke-miterlimit="10.0"><path d="M 216.2152,139.4842 l 14.9678,-55.8608 c -20.4284,-5.4738 -41.9377,-5.4738 -62.3660 -0.0000l 14.9678,55.8608 c 10.6227,-2.8464 21.8076,-2.8464 32.4303 0.0000Z"/></g><g stroke-linejoin="miter" stroke-opacity="1.0" fill-opacity="0.0" stroke="rgb(0,0,0)" stroke-width="1.5999999999999999" fill="rgb(0,0,0)" stroke-linecap="butt" stroke-miterlimit="10.0"><path d="M 244.3007,155.6993 l 40.8929,-40.8929 c -14.9546,-14.9546 -33.5822,-25.7093 -54.0106 -31.1830l -14.9678,55.8608 c 10.6227,2.8464 20.3091,8.4388 28.0855 16.2152Z"/></g><g stroke-linejoin="miter" stroke-opacity="1.0" fill-opacity="0.0" stroke="rgb(0,0,0)" stroke-width="1.5999999999999999" fill="rgb(0,0,0)" stroke-linecap="butt" stroke-miterlimit="10.0"><path d="M 260.5158,183.7848 l 55.8608,-14.9678 c -5.4738,-20.4284 -16.2284,-39.0560 -31.1830 -54.0106l -40.8929,40.8929 c 7.7764,7.7764 13.3688,17.4627 16.2152 28.0855Z"/></g><g stroke-linejoin="miter" stroke-opacity="1.0" fill-opacity="0.0" stroke="rgb(0,0,0)" stroke-width="1.5999999999999999" fill="rgb(0,0,0)" stroke-linecap="butt" stroke-miterlimit="10.0"><path d="M 260.5158,216.2152 l 55.8608,14.9678 c 5.4738,-20.4284 5.4738,-41.9377 0.0000 -62.3660l -55.8608,14.9678 c 2.8464,10.6227 2.8464,21.8076 -0.0000 32.4303Z"/></g><g stroke-linejoin="miter" stroke-opacity="1.0" fill-opacity="0.0" stroke="rgb(0,0,0)" stroke-width="0.0" fill="rgb(0,0,0)" stroke-linecap="butt" stroke-miterlimit="10.0"><path d="M 144.2648,272.4399 l -12.0482,20.8681 l 20.8681,12.0482 l 12.0482,-20.8681 Z"/></g><g stroke-linejoin="miter" stroke-opacity="1.0" fill-opacity="1.0" font-size="24.096385542168672px" stroke="rgb(0,0,0)" stroke-width="1.5999999999999999" fill="rgb(0,0,0)" stroke-linecap="butt" stroke-miterlimit="10.0"><text dominant-baseline="middle" transform="matrix(-0.8660,-0.5000,0.5000,-0.8660,148.6747,288.8980)" stroke="none" text-anchor="middle">E#</text></g><g stroke-linejoin="miter" stroke-opacity="1.0" fill-opacity="0.0" stroke="rgb(0,0,0)" stroke-width="0.0" fill="rgb(0,0,0)" stroke-linecap="butt" stroke-miterlimit="10.0"><path d="M 187.9518,288.9157 l 0.0000,24.0964 l 24.0964,-0.0000 l -0.0000,-24.0964 Z"/></g><g stroke-linejoin="miter" stroke-opacity="1.0" fill-opacity="1.0" font-size="24.096385542168672px" stroke="rgb(0,0,0)" stroke-width="1.5999999999999999" fill="rgb(0,0,0)" stroke-linecap="butt" stroke-miterlimit="10.0"><text dominant-baseline="middle" transform="matrix(-1.0000,0.0000,-0.0000,-1.0000,200.0000,300.9639)" stroke="none" text-anchor="middle">A#</text></g><g stroke-linejoin="miter" stroke-opacity="1.0" fill-opacity="0.0" stroke="rgb(0,0,0)" stroke-width="0.0" fill="rgb(0,0,0)" stroke-linecap="butt" stroke-miterlimit="10.0"><path d="M 233.1804,281.5666 l 12.0482,20.8681 l 20.8681,-12.0482 l -12.0482,-20.8681 Z"/></g><g stroke-linejoin="miter" stroke-opacity="1.0" fill-opacity="1.0" font-size="24.096385542168676px" stroke="rgb(0,0,0)" stroke-width="1.5999999999999999" fill="rgb(0,0,0)" stroke-linecap="butt" stroke-miterlimit="10.0"><text dominant-baseline="middle" transform="matrix(-0.8660,0.5000,-0.5000,-0.8660,249.6386,285.9765)" stroke="none" text-anchor="middle">D#</text></g><g stroke-linejoin="miter" stroke-opacity="1.0" fill-opacity="0.0" stroke="rgb(0,0,0)" stroke-width="0.0" fill="rgb(0,0,0)" stroke-linecap="butt" stroke-miterlimit="10.0"><path d="M 268.0576,253.2051 l 20.8681,12.0482 l 12.0482,-20.8681 l -20.8681,-12.0482 Z"/></g><g stroke-linejoin="miter" stroke-opacity="1.0" fill-opacity="1.0" font-size="24.096385542168672px" stroke="rgb(0,0,0)" stroke-width="1.5999999999999999" fill="rgb(0,0,0)" stroke-linecap="butt" stroke-miterlimit="10.0"><text dominant-baseline="middle" transform="matrix(-0.5000,0.8660,-0.8660,-0.5000,284.5157,248.7952)" stroke="none" text-anchor="middle">G#</text></g><g stroke-linejoin="miter" stroke-opacity="1.0" fill-opacity="0.0" stroke="rgb(0,0,0)" stroke-width="0.0" fill="rgb(0,0,0)" stroke-linecap="butt" stroke-miterlimit="10.0"><path d="M 283.8554,212.0482 l 24.0964,-0.0000 l -0.0000,-24.0964 l -24.0964,0.0000 Z"/></g><g stroke-linejoin="miter" stroke-opacity="1.0" fill-opacity="1.0" font-size="24.096385542168672px" stroke="rgb(0,0,0)" stroke-width="1.5999999999999999" fill="rgb(0,0,0)" stroke-linecap="butt" stroke-miterlimit="10.0"><text dominant-baseline="middle" transform="matrix(0.0000,1.0000,-1.0000,0.0000,295.9036,200.0000)" stroke="none" text-anchor="middle">C#</text></g><g stroke-linejoin="miter" stroke-opacity="1.0" fill-opacity="0.0" stroke="rgb(0,0,0)" stroke-width="0.0" fill="rgb(0,0,0)" stroke-linecap="butt" stroke-miterlimit="10.0"><path d="M 277.1843,169.3497 l 20.8681,-12.0482 l -12.0482,-20.8681 l -20.8681,12.0482 Z"/></g><g stroke-linejoin="miter" stroke-opacity="1.0" fill-opacity="1.0" font-size="24.096385542168676px" stroke="rgb(0,0,0)" stroke-width="1.5999999999999999" fill="rgb(0,0,0)" stroke-linecap="butt" stroke-miterlimit="10.0"><text dominant-baseline="middle" transform="matrix(0.5000,0.8660,-0.8660,0.5000,281.5942,152.8916)" stroke="none" text-anchor="middle">F#</text></g><g stroke-linejoin="miter" stroke-opacity="1.0" fill-opacity="0.0" stroke="rgb(0,0,0)" stroke-width="0.0" fill="rgb(0,0,0)" stroke-linecap="butt" stroke-miterlimit="10.0"><path d="M 250.6750,136.3247 l 12.0482,-20.8681 l -20.8681,-12.0482 l -12.0482,20.8681 Z"/></g><g stroke-linejoin="miter" stroke-opacity="1.0" fill-opacity="1.0" font-size="24.096385542168672px" stroke="rgb(0,0,0)" stroke-width="1.5999999999999999" fill="rgb(0,0,0)" stroke-linecap="butt" stroke-miterlimit="10.0"><text dominant-baseline="middle" transform="matrix(0.8660,0.5000,-0.5000,0.8660,246.2651,119.8666)" stroke="none" text-anchor="middle">B</text></g><g stroke-linejoin="miter" stroke-opacity="1.0" fill-opacity="0.0" stroke="rgb(0,0,0)" stroke-width="0.0" fill="rgb(0,0,0)" stroke-linecap="butt" stroke-miterlimit="10.0"><path d="M 212.0482,121.2048 l -0.0000,-24.0964 l -24.0964,0.0000 l 0.0000,24.0964 Z"/></g><g stroke-linejoin="miter" stroke-opacity="1.0" fill-opacity="1.0" font-size="24.096385542168672px" stroke="rgb(0,0,0)" stroke-width="1.5999999999999999" fill="rgb(0,0,0)" stroke-linecap="butt" stroke-miterlimit="10.0"><text dominant-baseline="middle" transform="matrix(1.0000,-0.0000,0.0000,1.0000,200.0000,109.1566)" stroke="none" text-anchor="middle">E</text></g><g stroke-linejoin="miter" stroke-opacity="1.0" fill-opacity="0.0" stroke="rgb(0,0,0)" stroke-width="0.0" fill="rgb(0,0,0)" stroke-linecap="butt" stroke-miterlimit="10.0"><path d="M 171.8798,127.1980 l -12.0482,-20.8681 l -20.8681,12.0482 l 12.0482,20.8681 Z"/></g><g stroke-linejoin="miter" stroke-opacity="1.0" fill-opacity="1.0" font-size="24.096385542168672px" stroke="rgb(0,0,0)" stroke-width="1.5999999999999999" fill="rgb(0,0,0)" stroke-linecap="butt" stroke-miterlimit="10.0"><text dominant-baseline="middle" transform="matrix(0.8660,-0.5000,0.5000,0.8660,155.4217,122.7881)" stroke="none" text-anchor="middle">A</text></g><g stroke-linejoin="miter" stroke-opacity="1.0" fill-opacity="0.0" stroke="rgb(0,0,0)" stroke-width="0.0" fill="rgb(0,0,0)" stroke-linecap="butt" stroke-miterlimit="10.0"><path d="M 140.7070,151.8551 l -20.8681,-12.0482 l -12.0482,20.8681 l 20.8681,12.0482 Z"/></g><g stroke-linejoin="miter" stroke-opacity="1.0" fill-opacity="1.0" font-size="24.096385542168672px" stroke="rgb(0,0,0)" stroke-width="1.5999999999999999" fill="rgb(0,0,0)" stroke-linecap="butt" stroke-miterlimit="10.0"><text dominant-baseline="middle" transform="matrix(0.5000,-0.8660,0.8660,0.5000,124.2489,156.2651)" stroke="none" text-anchor="middle">D</text></g><g stroke-linejoin="miter" stroke-opacity="1.0" fill-opacity="0.0" stroke="rgb(0,0,0)" stroke-width="0.0" fill="rgb(0,0,0)" stroke-linecap="butt" stroke-miterlimit="10.0"><path d="M 126.2651,187.9518 l -24.0964,0.0000 l 0.0000,24.0964 l 24.0964,-0.0000 Z"/></g><g stroke-linejoin="miter" stroke-opacity="1.0" fill-opacity="1.0" font-size="24.096385542168672px" stroke="rgb(0,0,0)" stroke-width="1.5999999999999999" fill="rgb(0,0,0)" stroke-linecap="butt" stroke-miterlimit="10.0"><text dominant-baseline="middle" transform="matrix(-0.0000,-1.0000,1.0000,-0.0000,114.2169,200.0000)" stroke="none" text-anchor="middle">G</text></g><g stroke-linejoin="miter" stroke-opacity="1.0" fill-opacity="0.0" stroke="rgb(0,0,0)" stroke-width="0.0" fill="rgb(0,0,0)" stroke-linecap="butt" stroke-miterlimit="10.0"><path d="M 131.5803,225.5901 l -20.8681,12.0482 l 12.0482,20.8681 l 20.8681,-12.0482 Z"/></g><g stroke-linejoin="miter" stroke-opacity="1.0" fill-opacity="1.0" font-size="24.096385542168672px" stroke="rgb(0,0,0)" stroke-width="1.5999999999999999" fill="rgb(0,0,0)" stroke-linecap="butt" stroke-miterlimit="10.0"><text dominant-baseline="middle" transform="matrix(-0.5000,-0.8660,0.8660,-0.5000,127.1704,242.0482)" stroke="none" text-anchor="middle">C</text></g><g stroke-linejoin="miter" stroke-opacity="1.0" fill-opacity="0.0" stroke="rgb(0,0,0)" stroke-width="0.0" fill="rgb(0,0,0)" stroke-linecap="butt" stroke-miterlimit="10.0"><path d="M 154.3852,254.9107 l -12.0482,20.8681 l 20.8681,12.0482 l 12.0482,-20.8681 Z"/></g><g stroke-linejoin="miter" stroke-opacity="1.0" fill-opacity="1.0" font-size="24.096385542168672px" stroke="rgb(0,0,0)" stroke-width="1.5999999999999999" fill="rgb(0,0,0)" stroke-linecap="butt" stroke-miterlimit="10.0"><text dominant-baseline="middle" transform="matrix(-0.8660,-0.5000,0.5000,-0.8660,158.7952,271.3688)" stroke="none" text-anchor="middle">F</text></g><g stroke-linejoin="miter" stroke-opacity="1.0" fill-opacity="0.0" stroke="rgb(0,0,0)" stroke-width="0.0" fill="rgb(0,0,0)" stroke-linecap="butt" stroke-miterlimit="10.0"><path d="M 187.9518,268.6747 l 0.0000,24.0964 l 24.0964,-0.0000 l -0.0000,-24.0964 Z"/></g><g stroke-linejoin="miter" stroke-opacity="1.0" fill-opacity="1.0" font-size="24.096385542168672px" stroke="rgb(0,0,0)" stroke-width="1.5999999999999999" fill="rgb(0,0,0)" stroke-linecap="butt" stroke-miterlimit="10.0"><text dominant-baseline="middle" transform="matrix(-1.0000,0.0000,-0.0000,-1.0000,200.0000,280.7229)" stroke="none" text-anchor="middle">Bb</text></g><g stroke-linejoin="miter" stroke-opacity="1.0" fill-opacity="0.0" stroke="rgb(0,0,0)" stroke-width="0.0" fill="rgb(0,0,0)" stroke-linecap="butt" stroke-miterlimit="10.0"><path d="M 223.0599,264.0374 l 12.0482,20.8681 l 20.8681,-12.0482 l -12.0482,-20.8681 Z"/></g><g stroke-linejoin="miter" stroke-opacity="1.0" fill-opacity="1.0" font-size="24.096385542168672px" stroke="rgb(0,0,0)" stroke-width="1.5999999999999999" fill="rgb(0,0,0)" stroke-linecap="butt" stroke-miterlimit="10.0"><text dominant-baseline="middle" transform="matrix(-0.8660,0.5000,-0.5000,-0.8660,239.5181,268.4473)" stroke="none" text-anchor="middle">Eb</text></g><g stroke-linejoin="miter" stroke-opacity="1.0" fill-opacity="0.0" stroke="rgb(0,0,0)" stroke-width="0.0" fill="rgb(0,0,0)" stroke-linecap="butt" stroke-miterlimit="10.0"><path d="M 250.5284,243.0846 l 20.8681,12.0482 l 12.0482,-20.8681 l -20.8681,-12.0482 Z"/></g><g stroke-linejoin="miter" stroke-opacity="1.0" fill-opacity="1.0" font-size="24.096385542168676px" stroke="rgb(0,0,0)" stroke-width="1.5999999999999999" fill="rgb(0,0,0)" stroke-linecap="butt" stroke-miterlimit="10.0"><text dominant-baseline="middle" transform="matrix(-0.5000,0.8660,-0.8660,-0.5000,266.9865,238.6747)" stroke="none" text-anchor="middle">Ab</text></g><g stroke-linejoin="miter" stroke-opacity="1.0" fill-opacity="0.0" stroke="rgb(0,0,0)" stroke-width="0.0" fill="rgb(0,0,0)" stroke-linecap="butt" stroke-miterlimit="10.0"><path d="M 263.6145,212.0482 l 24.0964,-0.0000 l -0.0000,-24.0964 l -24.0964,-0.0000 Z"/></g><g stroke-linejoin="miter" stroke-opacity="1.0" fill-opacity="1.0" font-size="24.096385542168672px" stroke="rgb(0,0,0)" stroke-width="1.5999999999999999" fill="rgb(0,0,0)" stroke-linecap="butt" stroke-miterlimit="10.0"><text dominant-baseline="middle" transform="matrix(0.0000,1.0000,-1.0000,0.0000,275.6627,200.0000)" stroke="none" text-anchor="middle">Db</text></g><g stroke-linejoin="miter" stroke-opacity="1.0" fill-opacity="0.0" stroke="rgb(0,0,0)" stroke-width="0.0" fill="rgb(0,0,0)" stroke-linecap="butt" stroke-miterlimit="10.0"><path d="M 259.6551,179.4702 l 20.8681,-12.0482 l -12.0482,-20.8681 l -20.8681,12.0482 Z"/></g><g stroke-linejoin="miter" stroke-opacity="1.0" fill-opacity="1.0" font-size="24.096385542168672px" stroke="rgb(0,0,0)" stroke-width="1.5999999999999999" fill="rgb(0,0,0)" stroke-linecap="butt" stroke-miterlimit="10.0"><text dominant-baseline="middle" transform="matrix(0.5000,0.8660,-0.8660,0.5000,264.0650,163.0120)" stroke="none" text-anchor="middle">Gb</text></g><g stroke-linejoin="miter" stroke-opacity="1.0" fill-opacity="0.0" stroke="rgb(0,0,0)" stroke-width="0.0" fill="rgb(0,0,0)" stroke-linecap="butt" stroke-miterlimit="10.0"><path d="M 240.5545,153.8539 l 12.0482,-20.8681 l -20.8681,-12.0482 l -12.0482,20.8681 Z"/></g><g stroke-linejoin="miter" stroke-opacity="1.0" fill-opacity="1.0" font-size="24.096385542168672px" stroke="rgb(0,0,0)" stroke-width="1.5999999999999999" fill="rgb(0,0,0)" stroke-linecap="butt" stroke-miterlimit="10.0"><text dominant-baseline="middle" transform="matrix(0.8660,0.5000,-0.5000,0.8660,236.1446,137.3958)" stroke="none" text-anchor="middle">Cb</text></g><g stroke-linejoin="miter" stroke-opacity="1.0" fill-opacity="0.0" stroke="rgb(0,0,0)" stroke-width="1.5999999999999999" fill="rgb(0,0,0)" stroke-linecap="butt" stroke-miterlimit="10.0"><path d="M 202.4096,200.0000 c 0.0000,-1.3308 -1.0788,-2.4096 -2.4096 -2.4096c -1.3308,-0.0000 -2.4096,1.0788 -2.4096 2.4096c -0.0000,1.3308 1.0788,2.4096 2.4096 2.4096c 1.3308,0.0000 2.4096,-1.0788 2.4096 -2.4096Z"/></g></svg>