<?xml version="1.0" encoding="UTF-8"?>
<!DOCTYPE svg PUBLIC "-//W3C//DTD SVG 1.1//EN"
    "http://www.w3.org/Graphics/SVG/1.1/DTD/svg11.dtd"><svg xmlns="http://www.w3.org/2000/svg" height="800.0000" stroke-opacity="1" viewBox="0 0 800 800" font-size="1" width="800.0000" xmlns:xlink="http://www.w3.org/1999/xlink" stroke="rgb(0,0,0)" version="1.1"><defs></defs><g stroke-linejoin="miter" stroke-opacity="1.0" fill-opacity="0.0" stroke="rgb(0,0,0)" stroke-width="3.1999999999999997" fill="rgb(0,0,0)" stroke-linecap="butt" stroke-miterlimit="10.0"><path d="M 641.9498,158.0502 l 40.8929,-40.8929 c -49.6493,-49.6493 -111.4929,-85.3547 -179.3151 -103.5276l -14.9678,55.8608 c 58.0165,15.5455 110.9190,46.0887 153.3900 88.5598Z"/></g><g stroke-linejoin="miter" stroke-opacity="1.0" fill-opacity="0.0" stroke="rgb(0,0,0)" stroke-width="3.1999999999999997" fill="rgb(0,0,0)" stroke-linecap="butt" stroke-miterlimit="10.0"><path d="M 730.5096,311.4402 l 55.8608,-14.9678 c -18.1729,-67.8222 -53.8784,-129.6658 -103.5276 -179.3151l -40.8929,40.8929 c 42.4711,42.4711 73.0143,95.3735 88.5598 153.3900Z"/></g><g stroke-linejoin="miter" stroke-opacity="1.0" fill-opacity="0.0" stroke="rgb(0,0,0)" stroke-width="3.1999999999999997" fill="rgb(0,0,0)" stroke-linecap="butt" stroke-miterlimit="10.0"><path d="M 730.5096,488.5598 l 55.8608,14.9678 c 18.1729,-67.8222 18.1729,-139.2331 0.0000 -207.0552l -55.8608,14.9678 c 15.5455,58.0165 15.5455,119.1030 -0.0000 177.1195Z"/></g><g stroke-linejoin="miter" stroke-opacity="1.0" fill-opacity="0.0" stroke="rgb(0,0,0)" stroke-width="3.1999999999999997" fill="rgb(0,0,0)" stroke-linecap="butt" stroke-miterlimit="10.0"><path d="M 641.9498,641.9498 l 40.8929,40.8929 c 49.6493,-49.6493 85.3547,-111.4929 103.5276 -179.3151l -55.8608,-14.9678 c -15.5455,58.0165 -46.0887,110.9190 -88.5598 153.3900Z"/></g><g stroke-linejoin="miter" stroke-opacity="1.0" fill-opacity="0.0" stroke="rgb(0,0,0)" stroke-width="3.1999999999999997" fill="rgb(0,0,0)" stroke-linecap="butt" stroke-miterlimit="10.0"><path d="M 488.5598,730.5096 l 14.9678,55.8608 c 67.8222,-18.1729 129.6658,-53.8784 179.3151 -103.5276l -40.8929,-40.8929 c -42.4711,42.4711 -95.3735,73.0143 -153.3900 88.5598Z"/></g><g stroke-linejoin="miter" stroke-opacity="1.0" fill-opacity="0.0" stroke="rgb(0,0,0)" stroke-width="3.1999999999999997" fill="rgb(0,0,0)" stroke-linecap="butt" stroke-miterlimit="10.0"><path d="M 311.4402,730.5096 l -14.9678,55.8608 c 67.8222,18.1729 139.2331,18.1729 207.0552 0.0000l -14.9678,-55.8608 c -58.0165,15.5455 -119.1030,15.5455 -177.1195 -0.0000Z"/></g><g stroke-linejoin="miter" stroke-opacity="1.0" fill-opacity="0.0" stroke="rgb(0,0,0)" stroke-width="3.1999999999999997" fill="rgb(0,0,0)" stroke-linecap="butt" stroke-miterlimit="10.0"><path d="M 158.0502,641.9498 l -40.8929,40.8929 c 49.6493,49.6493 111.4929,85.3547 179.3151 103.5276l 14.9678,-55.8608 c -58.0165,-15.5455 -110.9190,-46.0887 -153.3900 -88.5598Z"/></g><g stroke-linejoin="miter" stroke-opacity="1.0" fill-opacity="0.0" stroke="rgb(0,0,0)" stroke-width="3.1999999999999997" fill="rgb(0,0,0)" stroke-linecap="butt" stroke-miterlimit="10.0"><path d="M 69.4904,488.5598 l -55.8608,14.9678 c 18.1729,67.8222 53.8784,129.6658 103.5276 179.3151l 40.8929,-40.8929 c -42.4711,-42.4711 -73.0143,-95.3735 -88.5598 -153.3900Z"/></g><g stroke-linejoin="miter" stroke-opacity="1.0" fill-opacity="0.0" stroke="rgb(0,0,0)" stroke-width="3.1999999999999997" fill="rgb(0,0,0)" stroke-linecap="butt" stroke-miterlimit="10.0"><path d="M 69.4904,311.4402 l -55.8608,-14.9678 c -18.1729,67.8222 -18.1729,139.2331 -0.0000 207.0552l 55.8608,-14.9678 c -15.5455,-58.0165 -15.5455,-119.1030 0.0000 -177.1195Z"/></g><g stroke-linejoin="miter" stroke-opacity="1.0" fill-opacity="0.0" stroke="rgb(0,0,0)" stroke-width="3.1999999999999997" fill="rgb(0,0,0)" stroke-linecap="butt" stroke-miterlimit="10.0"><path d="M 158.0502,158.0502 l -40.8929,-40.8929 c -49.6493,49.6493 -85.3547,111.4929 -103.5276 179.3151l 55.8608,14.9678 c 15.5455,-58.0165 46.0887,-110.9190 88.5598 -153.3900Z"/></g><g stroke-linejoin="miter" stroke-opacity="1.0" fill-opacity="0.0" stroke="rgb(0,0,0)" stroke-width="3.1999999999999997" fill="rgb(0,0,0)" stroke-linecap="butt" stroke-miterlimit="10.0"><path d="M 311.4402,69.4904 l -14.9678,-55.8608 c -67.8222,18.1729 -129.6658,53.8784 -179.3151 103.5276l 40.8929,40.8929 c 42.4711,-42.4711 95.3735,-73.0143 153.3900 -88.5598Z"/></g><g stroke-linejoin="miter" stroke-opacity="1.0" fill-opacity="0.0" stroke="rgb(0,0,0)" stroke-width="3.1999999999999997" fill="rgb(0,0,0)" stroke-linecap="butt" stroke-miterlimit="10.0"><path d="M 488.5598,69.4904 l 14.9678,-55.8608 c -67.8222,-18.1729 -139.2331,-18.1729 -207.0552 -0.0000l 14.9678,55.8608 c 58.0165,-15.5455 119.1030,-15.5455 177.1195 -0.0000Z"/></g><g stroke-linejoin="miter" stroke-opacity="1.0" fill-opacity="0.0" font-size="48.192771084337345px" stroke="rgb(0,0,0)" stroke-width="0.0" fill="rgb(0,0,0)" stroke-linecap="butt" stroke-miterlimit="10.0"><path d="M 424.0964,57.8313 l -0.0000,-48.1928 l -48.1928,0.0000 l 0.0000,48.1928 Z"/></g><g stroke-linejoin="miter" stroke-opacity="1.0" fill-opacity="1.0" font-size="48.192771084337345px" stroke="rgb(0,0,0)" stroke-width="3.1999999999999997" fill="rgb(0,0,0)" stroke-linecap="butt" stroke-miterlimit="10.0"><text dominant-baseline="middle" transform="matrix(1.0000,-0.0000,0.0000,1.0000,400.0000,33.7349)" stroke="none" text-anchor="middle">VI</text></g><g stroke-linejoin="miter" stroke-opacity="1.0" fill-opacity="0.0" font-size="48.192771084337345px" stroke="rgb(0,0,0)" stroke-width="0.0" fill="rgb(0,0,0)" stroke-linecap="butt" stroke-miterlimit="10.0"><path d="M 249.7837,91.6250 l -24.0964,-41.7362 l -41.7362,24.0964 l 24.0964,41.7362 Z"/></g><g stroke-linejoin="miter" stroke-opacity="1.0" fill-opacity="1.0" font-size="48.192771084337345px" stroke="rgb(0,0,0)" stroke-width="3.1999999999999997" fill="rgb(0,0,0)" stroke-linecap="butt" stroke-miterlimit="10.0"><text dominant-baseline="middle" transform="matrix(0.8660,-0.5000,0.5000,0.8660,216.8675,82.8052)" stroke="none" text-anchor="middle">II</text></g><g stroke-linejoin="miter" stroke-opacity="1.0" fill-opacity="0.0" font-size="48.192771084337345px" stroke="rgb(0,0,0)" stroke-width="0.0" fill="rgb(0,0,0)" stroke-linecap="butt" stroke-miterlimit="10.0"><path d="M 115.7214,208.0476 l -41.7362,-24.0964 l -24.0964,41.7362 l 41.7362,24.0964 Z"/></g><g stroke-linejoin="miter" stroke-opacity="1.0" fill-opacity="1.0" font-size="48.192771084337345px" stroke="rgb(0,0,0)" stroke-width="3.1999999999999997" fill="rgb(0,0,0)" stroke-linecap="butt" stroke-miterlimit="10.0"><text dominant-baseline="middle" transform="matrix(0.5000,-0.8660,0.8660,0.5000,82.8052,216.8675)" stroke="none" text-anchor="middle">V</text></g><g stroke-linejoin="miter" stroke-opacity="1.0" fill-opacity="0.0" font-size="48.192771084337345px" stroke="rgb(0,0,0)" stroke-width="0.0" fill="rgb(0,0,0)" stroke-linecap="butt" stroke-miterlimit="10.0"><path d="M 57.8313,375.9036 l -48.1928,0.0000 l 0.0000,48.1928 l 48.1928,-0.0000 Z"/></g><g stroke-linejoin="miter" stroke-opacity="1.0" fill-opacity="1.0" font-size="48.192771084337345px" stroke="rgb(0,0,0)" stroke-width="3.1999999999999997" fill="rgb(0,0,0)" stroke-linecap="butt" stroke-miterlimit="10.0"><text dominant-baseline="middle" transform="matrix(-0.0000,-1.0000,1.0000,-0.0000,33.7349,400.0000)" stroke="none" text-anchor="middle">I</text></g><g stroke-linejoin="miter" stroke-opacity="1.0" fill-opacity="0.0" font-size="48.192771084337345px" stroke="rgb(0,0,0)" stroke-width="0.0" fill="rgb(0,0,0)" stroke-linecap="butt" stroke-miterlimit="10.0"><path d="M 91.6250,550.2163 l -41.7362,24.0964 l 24.0964,41.7362 l 41.7362,-24.0964 Z"/></g><g stroke-linejoin="miter" stroke-opacity="1.0" fill-opacity="1.0" font-size="48.192771084337345px" stroke="rgb(0,0,0)" stroke-width="3.1999999999999997" fill="rgb(0,0,0)" stroke-linecap="butt" stroke-miterlimit="10.0"><text dominant-baseline="middle" transform="matrix(-0.5000,-0.8660,0.8660,-0.5000,82.8052,583.1325)" stroke="none" text-anchor="middle">IV</text></g><g stroke-linejoin="miter" stroke-opacity="1.0" fill-opacity="0.0" font-size="48.192771084337345px" stroke="rgb(0,0,0)" stroke-width="0.0" fill="rgb(0,0,0)" stroke-linecap="butt" stroke-miterlimit="10.0"><path d="M 208.0476,684.2786 l -24.0964,41.7362 l 41.7362,24.0964 l 24.0964,-41.7362 Z"/></g><g stroke-linejoin="miter" stroke-opacity="1.0" fill-opacity="1.0" font-size="48.192771084337345px" stroke="rgb(0,0,0)" stroke-width="3.1999999999999997" fill="rgb(0,0,0)" stroke-linecap="butt" stroke-miterlimit="10.0"><text dominant-baseline="middle" transform="matrix(-0.8660,-0.5000,0.5000,-0.8660,216.8675,717.1948)" stroke="none" text-anchor="middle">VII</text></g><g stroke-linejoin="miter" stroke-opacity="1.0" fill-opacity="0.0" font-size="48.192771084337345px" stroke="rgb(0,0,0)" stroke-width="0.0" fill="rgb(0,0,0)" stroke-linecap="butt" stroke-miterlimit="10.0"><path d="M 375.9036,742.1687 l 0.0000,48.1928 l 48.1928,-0.0000 l -0.0000,-48.1928 Z"/></g><g stroke-linejoin="miter" stroke-opacity="1.0" fill-opacity="1.0" font-size="48.192771084337345px" stroke="rgb(0,0,0)" stroke-width="3.1999999999999997" fill="rgb(0,0,0)" stroke-linecap="butt" stroke-miterlimit="10.0"><text dominant-baseline="middle" transform="matrix(-1.0000,0.0000,-0.0000,-1.0000,400.0000,766.2651)" stroke="none" text-anchor="middle">III</text></g><g stroke-linejoin="miter" stroke-opacity="1.0" fill-opacity="0.0" font-size="48.192771084337345px" stroke="rgb(0,0,0)" stroke-width="0.0" fill="rgb(0,0,0)" stroke-linecap="butt" stroke-miterlimit="10.0"><path d="M 550.2163,708.3750 l 24.0964,41.7362 l 41.7362,-24.0964 l -24.0964,-41.7362 Z"/></g><g stroke-linejoin="miter" stroke-opacity="1.0" fill-opacity="1.0" font-size="48.192771084337345px" stroke="rgb(0,0,0)" stroke-width="3.1999999999999997" fill="rgb(0,0,0)" stroke-linecap="butt" stroke-miterlimit="10.0"><text dominant-baseline="middle" transform="matrix(-0.8660,0.5000,-0.5000,-0.8660,583.1325,717.1948)" stroke="none" text-anchor="middle">VI</text></g><g stroke-linejoin="miter" stroke-opacity="1.0" fill-opacity="0.0" font-size="48.192771084337345px" stroke="rgb(0,0,0)" stroke-width="0.0" fill="rgb(0,0,0)" stroke-linecap="butt" stroke-miterlimit="10.0"><path d="M 684.2786,591.9524 l 41.7362,24.0964 l 24.0964,-41.7362 l -41.7362,-24.0964 Z"/></g><g stroke-linejoin="miter" stroke-opacity="1.0" fill-opacity="1.0" font-size="48.192771084337345px" stroke="rgb(0,0,0)" stroke-width="3.1999999999999997" fill="rgb(0,0,0)" stroke-linecap="butt" stroke-miterlimit="10.0"><text dominant-baseline="middle" transform="matrix(-0.5000,0.8660,-0.8660,-0.5000,717.1948,583.1325)" stroke="none" text-anchor="middle">II</text></g><g stroke-linejoin="miter" stroke-opacity="1.0" fill-opacity="0.0" font-size="48.192771084337345px" stroke="rgb(0,0,0)" stroke-width="0.0" fill="rgb(0,0,0)" stroke-linecap="butt" stroke-miterlimit="10.0"><path d="M 742.1687,424.0964 l 48.1928,-0.0000 l -0.0000,-48.1928 l -48.1928,-0.0000 Z"/></g><g stroke-linejoin="miter" stroke-opacity="1.0" fill-opacity="1.0" font-size="48.192771084337345px" stroke="rgb(0,0,0)" stroke-width="3.1999999999999997" fill="rgb(0,0,0)" stroke-linecap="butt" stroke-miterlimit="10.0"><text dominant-baseline="middle" transform="matrix(0.0000,1.0000,-1.0000,0.0000,766.2651,400.0000)" stroke="none" text-anchor="middle">V</text></g><g stroke-linejoin="miter" stroke-opacity="1.0" fill-opacity="0.0" font-size="48.192771084337345px" stroke="rgb(0,0,0)" stroke-width="0.0" fill="rgb(0,0,0)" stroke-linecap="butt" stroke-miterlimit="10.0"><path d="M 708.3750,249.7837 l 41.7362,-24.0964 l -24.0964,-41.7362 l -41.7362,24.0964 Z"/></g><g stroke-linejoin="miter" stroke-opacity="1.0" fill-opacity="1.0" font-size="48.192771084337345px" stroke="rgb(0,0,0)" stroke-width="3.1999999999999997" fill="rgb(0,0,0)" stroke-linecap="butt" stroke-miterlimit="10.0"><text dominant-baseline="middle" transform="matrix(0.5000,0.8660,-0.8660,0.5000,717.1948,216.8675)" stroke="none" text-anchor="middle">I</text></g><g stroke-linejoin="miter" stroke-opacity="1.0" fill-opacity="0.0" font-size="48.192771084337345px" stroke="rgb(0,0,0)" stroke-width="0.0" fill="rgb(0,0,0)" stroke-linecap="butt" stroke-miterlimit="10.0"><path d="M 591.9524,115.7214 l 24.0964,-41.7362 l -41.7362,-24.0964 l -24.0964,41.7362 Z"/></g><g stroke-linejoin="miter" stroke-opacity="1.0" fill-opacity="1.0" font-size="48.192771084337345px" stroke="rgb(0,0,0)" stroke-width="3.1999999999999997" fill="rgb(0,0,0)" stroke-linecap="butt" stroke-miterlimit="10.0"><text dominant-baseline="middle" transform="matrix(0.8660,0.5000,-0.5000,0.8660,583.1325,82.8052)" stroke="none" text-anchor="middle">III-IV</text></g><g stroke-linejoin="miter" stroke-opacity="1.0" fill-opacity="1.0" stroke="rgb(0,0,0)" stroke-width="3.1999999999999997" fill="rgb(255,192,203)" stroke-linecap="butt" stroke-miterlimit="10.0"><path d="M 226.2051,573.7949 l -64.7471,64.7471 c 41.8729,41.8729 94.0302,71.9859 151.2296 87.3124l 23.6991,-88.4462 c -41.6739,-11.1665 -79.6742,-33.1060 -110.1816 -63.6134Z"/></g><g stroke-linejoin="miter" stroke-opacity="1.0" fill-opacity="1.0" stroke="rgb(0,0,0)" stroke-width="3.1999999999999997" fill="rgb(255,228,196)" stroke-linecap="butt" stroke-miterlimit="10.0"><path d="M 336.3866,637.4083 l -23.6991,88.4462 c 57.1994,15.3265 117.4255,15.3265 174.6249 -0.0000l -23.6991,-88.4462 c -41.6739,11.1665 -85.5529,11.1665 -127.2267 0.0000Z"/></g><g stroke-linejoin="miter" stroke-opacity="1.0" fill-opacity="1.0" stroke="rgb(0,0,0)" stroke-width="3.1999999999999997" fill="rgb(255,228,196)" stroke-linecap="butt" stroke-miterlimit="10.0"><path d="M 463.6134,637.4083 l 23.6991,88.4462 c 57.1994,-15.3265 109.3567,-45.4396 151.2296 -87.3124l -64.7471,-64.7471 c -30.5074,30.5074 -68.5077,52.4469 -110.1816 63.6134Z"/></g><g stroke-linejoin="miter" stroke-opacity="1.0" fill-opacity="1.0" stroke="rgb(0,0,0)" stroke-width="3.1999999999999997" fill="rgb(255,228,196)" stroke-linecap="butt" stroke-miterlimit="10.0"><path d="M 573.7949,573.7949 l 64.7471,64.7471 c 41.8729,-41.8729 71.9859,-94.0302 87.3124 -151.2296l -88.4462,-23.6991 c -11.1665,41.6739 -33.1060,79.6742 -63.6134 110.1816Z"/></g><g stroke-linejoin="miter" stroke-opacity="1.0" fill-opacity="1.0" stroke="rgb(0,0,0)" stroke-width="3.1999999999999997" fill="rgb(240,255,240)" stroke-linecap="butt" stroke-miterlimit="10.0"><path d="M 637.4083,463.6134 l 88.4462,23.6991 c 15.3265,-57.1994 15.3265,-117.4255 0.0000 -174.6249l -88.4462,23.6991 c 11.1665,41.6739 11.1665,85.5529 -0.0000 127.2267Z"/></g><g stroke-linejoin="miter" stroke-opacity="1.0" fill-opacity="1.0" stroke="rgb(0,0,0)" stroke-width="3.1999999999999997" fill="rgb(240,255,240)" stroke-linecap="butt" stroke-miterlimit="10.0"><path d="M 637.4083,336.3866 l 88.4462,-23.6991 c -15.3265,-57.1994 -45.4396,-109.3567 -87.3124 -151.2296l -64.7471,64.7471 c 30.5074,30.5074 52.4469,68.5077 63.6134 110.1816Z"/></g><g stroke-linejoin="miter" stroke-opacity="1.0" fill-opacity="1.0" stroke="rgb(0,0,0)" stroke-width="3.1999999999999997" fill="rgb(240,255,240)" stroke-linecap="butt" stroke-miterlimit="10.0"><path d="M 573.7949,226.2051 l 64.7471,-64.7471 c -41.8729,-41.8729 -94.0302,-71.9859 -151.2296 -87.3124l -23.6991,88.4462 c 41.6739,11.1665 79.6742,33.1060 110.1816 63.6134Z"/></g><g stroke-linejoin="miter" stroke-opacity="1.0" fill-opacity="0.0" font-size="28.915662650602407px" stroke="rgb(0,0,0)" stroke-width="0.0" fill="rgb(0,0,0)" stroke-linecap="butt" stroke-miterlimit="10.0"><path d="M 236.9632,634.1952 l -24.0964,41.7362 l 41.7362,24.0964 l 24.0964,-41.7362 Z"/></g><g stroke-linejoin="miter" stroke-opacity="1.0" fill-opacity="1.0" font-size="28.915662650602407px" stroke="rgb(0,0,0)" stroke-width="3.1999999999999997" fill="rgb(0,0,0)" stroke-linecap="butt" stroke-miterlimit="10.0"><text dominant-baseline="middle" transform="matrix(-0.8660,-0.5000,0.5000,-0.8660,245.7831,667.1114)" stroke="none" text-anchor="middle">Locrian</text></g><g stroke-linejoin="miter" stroke-opacity="1.0" fill-opacity="0.0" font-size="28.915662650602407px" stroke="rgb(0,0,0)" stroke-width="0.0" fill="rgb(0,0,0)" stroke-linecap="butt" stroke-miterlimit="10.0"><path d="M 375.9036,684.3373 l 0.0000,48.1928 l 48.1928,-0.0000 l -0.0000,-48.1928 Z"/></g><g stroke-linejoin="miter" stroke-opacity="1.0" fill-opacity="1.0" font-size="28.915662650602407px" stroke="rgb(0,0,0)" stroke-width="3.1999999999999997" fill="rgb(0,0,0)" stroke-linecap="butt" stroke-miterlimit="10.0"><text dominant-baseline="middle" transform="matrix(-1.0000,0.0000,-0.0000,-1.0000,400.0000,708.4337)" stroke="none" text-anchor="middle">Phrygian</text></g><g stroke-linejoin="miter" stroke-opacity="1.0" fill-opacity="0.0" font-size="28.915662650602407px" stroke="rgb(0,0,0)" stroke-width="0.0" fill="rgb(0,0,0)" stroke-linecap="butt" stroke-miterlimit="10.0"><path d="M 521.3006,658.2916 l 24.0964,41.7362 l 41.7362,-24.0964 l -24.0964,-41.7362 Z"/></g><g stroke-linejoin="miter" stroke-opacity="1.0" fill-opacity="1.0" font-size="28.915662650602407px" stroke="rgb(0,0,0)" stroke-width="3.1999999999999997" fill="rgb(0,0,0)" stroke-linecap="butt" stroke-miterlimit="10.0"><text dominant-baseline="middle" transform="matrix(-0.8660,0.5000,-0.5000,-0.8660,554.2169,667.1114)" stroke="none" text-anchor="middle">Aeolian</text></g><g stroke-linejoin="miter" stroke-opacity="1.0" fill-opacity="0.0" font-size="28.915662650602407px" stroke="rgb(0,0,0)" stroke-width="0.0" fill="rgb(0,0,0)" stroke-linecap="butt" stroke-miterlimit="10.0"><path d="M 634.1952,563.0368 l 41.7362,24.0964 l 24.0964,-41.7362 l -41.7362,-24.0964 Z"/></g><g stroke-linejoin="miter" stroke-opacity="1.0" fill-opacity="1.0" font-size="28.915662650602407px" stroke="rgb(0,0,0)" stroke-width="3.1999999999999997" fill="rgb(0,0,0)" stroke-linecap="butt" stroke-miterlimit="10.0"><text dominant-baseline="middle" transform="matrix(-0.5000,0.8660,-0.8660,-0.5000,667.1114,554.2169)" stroke="none" text-anchor="middle">Dorian</text></g><g stroke-linejoin="miter" stroke-opacity="1.0" fill-opacity="0.0" font-size="28.915662650602407px" stroke="rgb(0,0,0)" stroke-width="0.0" fill="rgb(0,0,0)" stroke-linecap="butt" stroke-miterlimit="10.0"><path d="M 684.3373,424.0964 l 48.1928,-0.0000 l -0.0000,-48.1928 l -48.1928,-0.0000 Z"/></g><g stroke-linejoin="miter" stroke-opacity="1.0" fill-opacity="1.0" font-size="28.915662650602407px" stroke="rgb(0,0,0)" stroke-width="3.1999999999999997" fill="rgb(0,0,0)" stroke-linecap="butt" stroke-miterlimit="10.0"><text dominant-baseline="middle" transform="matrix(0.0000,1.0000,-1.0000,0.0000,708.4337,400.0000)" stroke="none" text-anchor="middle">Mixolydian</text></g><g stroke-linejoin="miter" stroke-opacity="1.0" fill-opacity="0.0" font-size="28.915662650602407px" stroke="rgb(0,0,0)" stroke-width="0.0" fill="rgb(0,0,0)" stroke-linecap="butt" stroke-miterlimit="10.0"><path d="M 658.2916,278.6994 l 41.7362,-24.0964 l -24.0964,-41.7362 l -41.7362,24.0964 Z"/></g><g stroke-linejoin="miter" stroke-opacity="1.0" fill-opacity="1.0" font-size="28.915662650602407px" stroke="rgb(0,0,0)" stroke-width="3.1999999999999997" fill="rgb(0,0,0)" stroke-linecap="butt" stroke-miterlimit="10.0"><text dominant-baseline="middle" transform="matrix(0.5000,0.8660,-0.8660,0.5000,667.1114,245.7831)" stroke="none" text-anchor="middle">Ionian</text></g><g stroke-linejoin="miter" stroke-opacity="1.0" fill-opacity="0.0" font-size="28.915662650602407px" stroke="rgb(0,0,0)" stroke-width="0.0" fill="rgb(0,0,0)" stroke-linecap="butt" stroke-miterlimit="10.0"><path d="M 563.0368,165.8048 l 24.0964,-41.7362 l -41.7362,-24.0964 l -24.0964,41.7362 Z"/></g><g stroke-linejoin="miter" stroke-opacity="1.0" fill-opacity="1.0" font-size="28.915662650602407px" stroke="rgb(0,0,0)" stroke-width="3.1999999999999997" fill="rgb(0,0,0)" stroke-linecap="butt" stroke-miterlimit="10.0"><text dominant-baseline="middle" transform="matrix(0.8660,0.5000,-0.5000,0.8660,554.2169,132.8886)" stroke="none" text-anchor="middle">Lydian</text></g><g stroke-linejoin="miter" stroke-opacity="1.0" fill-opacity="0.0" stroke="rgb(0,0,0)" stroke-width="0.0" fill="rgb(0,0,0)" stroke-linecap="butt" stroke-miterlimit="10.0"><path d="M 258.6500,596.6326 l -24.0964,41.7362 l 41.7362,24.0964 l 24.0964,-41.7362 Z"/></g><g stroke-linejoin="miter" stroke-opacity="1.0" fill-opacity="1.0" font-size="48.192771084337345px" stroke="rgb(0,0,0)" stroke-width="3.1999999999999997" fill="rgb(0,0,0)" stroke-linecap="butt" stroke-miterlimit="10.0"><text dominant-baseline="middle" transform="matrix(-0.8660,-0.5000,0.5000,-0.8660,267.4699,629.5489)" stroke="none" text-anchor="middle">TI</text></g><g stroke-linejoin="miter" stroke-opacity="1.0" fill-opacity="0.0" stroke="rgb(0,0,0)" stroke-width="0.0" fill="rgb(0,0,0)" stroke-linecap="butt" stroke-miterlimit="10.0"><path d="M 375.9036,640.9639 l 0.0000,48.1928 l 48.1928,-0.0000 l -0.0000,-48.1928 Z"/></g><g stroke-linejoin="miter" stroke-opacity="1.0" fill-opacity="1.0" font-size="48.192771084337345px" stroke="rgb(0,0,0)" stroke-width="3.1999999999999997" fill="rgb(0,0,0)" stroke-linecap="butt" stroke-miterlimit="10.0"><text dominant-baseline="middle" transform="matrix(-1.0000,0.0000,-0.0000,-1.0000,400.0000,665.0602)" stroke="none" text-anchor="middle">mi</text></g><g stroke-linejoin="miter" stroke-opacity="1.0" fill-opacity="0.0" stroke="rgb(0,0,0)" stroke-width="0.0" fill="rgb(0,0,0)" stroke-linecap="butt" stroke-miterlimit="10.0"><path d="M 499.6138,620.7290 l 24.0964,41.7362 l 41.7362,-24.0964 l -24.0964,-41.7362 Z"/></g><g stroke-linejoin="miter" stroke-opacity="1.0" fill-opacity="1.0" font-size="48.192771084337345px" stroke="rgb(0,0,0)" stroke-width="3.1999999999999997" fill="rgb(0,0,0)" stroke-linecap="butt" stroke-miterlimit="10.0"><text dominant-baseline="middle" transform="matrix(-0.8660,0.5000,-0.5000,-0.8660,532.5301,629.5489)" stroke="none" text-anchor="middle">la</text></g><g stroke-linejoin="miter" stroke-opacity="1.0" fill-opacity="0.0" stroke="rgb(0,0,0)" stroke-width="0.0" fill="rgb(0,0,0)" stroke-linecap="butt" stroke-miterlimit="10.0"><path d="M 596.6326,541.3500 l 41.7362,24.0964 l 24.0964,-41.7362 l -41.7362,-24.0964 Z"/></g><g stroke-linejoin="miter" stroke-opacity="1.0" fill-opacity="1.0" font-size="48.19277108433735px" stroke="rgb(0,0,0)" stroke-width="3.1999999999999997" fill="rgb(0,0,0)" stroke-linecap="butt" stroke-miterlimit="10.0"><text dominant-baseline="middle" transform="matrix(-0.5000,0.8660,-0.8660,-0.5000,629.5489,532.5301)" stroke="none" text-anchor="middle">re</text></g><g stroke-linejoin="miter" stroke-opacity="1.0" fill-opacity="0.0" stroke="rgb(0,0,0)" stroke-width="0.0" fill="rgb(0,0,0)" stroke-linecap="butt" stroke-miterlimit="10.0"><path d="M 640.9639,424.0964 l 48.1928,-0.0000 l -0.0000,-48.1928 l -48.1928,-0.0000 Z"/></g><g stroke-linejoin="miter" stroke-opacity="1.0" fill-opacity="1.0" font-size="48.192771084337345px" stroke="rgb(0,0,0)" stroke-width="3.1999999999999997" fill="rgb(0,0,0)" stroke-linecap="butt" stroke-miterlimit="10.0"><text dominant-baseline="middle" transform="matrix(0.0000,1.0000,-1.0000,0.0000,665.0602,400.0000)" stroke="none" text-anchor="middle">So</text></g><g stroke-linejoin="miter" stroke-opacity="1.0" fill-opacity="0.0" stroke="rgb(0,0,0)" stroke-width="0.0" fill="rgb(0,0,0)" stroke-linecap="butt" stroke-miterlimit="10.0"><path d="M 620.7290,300.3862 l 41.7362,-24.0964 l -24.0964,-41.7362 l -41.7362,24.0964 Z"/></g><g stroke-linejoin="miter" stroke-opacity="1.0" fill-opacity="1.0" font-size="48.192771084337345px" stroke="rgb(0,0,0)" stroke-width="3.1999999999999997" fill="rgb(0,0,0)" stroke-linecap="butt" stroke-miterlimit="10.0"><text dominant-baseline="middle" transform="matrix(0.5000,0.8660,-0.8660,0.5000,629.5489,267.4699)" stroke="none" text-anchor="middle">Do</text></g><g stroke-linejoin="miter" stroke-opacity="1.0" fill-opacity="0.0" stroke="rgb(0,0,0)" stroke-width="0.0" fill="rgb(0,0,0)" stroke-linecap="butt" stroke-miterlimit="10.0"><path d="M 541.3500,203.3674 l 24.0964,-41.7362 l -41.7362,-24.0964 l -24.0964,41.7362 Z"/></g><g stroke-linejoin="miter" stroke-opacity="1.0" fill-opacity="1.0" font-size="48.192771084337345px" stroke="rgb(0,0,0)" stroke-width="3.1999999999999997" fill="rgb(0,0,0)" stroke-linecap="butt" stroke-miterlimit="10.0"><text dominant-baseline="middle" transform="matrix(0.8660,0.5000,-0.5000,0.8660,532.5301,170.4511)" stroke="none" text-anchor="middle">Fa</text></g><g stroke-linejoin="miter" stroke-opacity="1.0" fill-opacity="0.0" stroke="rgb(0,0,0)" stroke-width="3.1999999999999997" fill="rgb(0,0,0)" stroke-linecap="butt" stroke-miterlimit="10.0"><path d="M 488.6013,488.6013 l 81.7858,81.7858 c 29.9092,-29.9092 51.4185,-67.1644 62.3660 -108.0211l -111.7215,-29.9357 c -5.6927,21.2455 -16.8776,40.6182 -32.4303 56.1710Z"/></g><g stroke-linejoin="miter" stroke-opacity="1.0" fill-opacity="0.0" stroke="rgb(0,0,0)" stroke-width="3.1999999999999997" fill="rgb(0,0,0)" stroke-linecap="butt" stroke-miterlimit="10.0"><path d="M 432.4303,521.0317 l 29.9357,111.7215 c 40.8567,-10.9475 78.1119,-32.4568 108.0211 -62.3660l -81.7858,-81.7858 c -15.5528,15.5528 -34.9255,26.7376 -56.1710 32.4303Z"/></g><g stroke-linejoin="miter" stroke-opacity="1.0" fill-opacity="0.0" stroke="rgb(0,0,0)" stroke-width="3.1999999999999997" fill="rgb(0,0,0)" stroke-linecap="butt" stroke-miterlimit="10.0"><path d="M 367.5697,521.0317 l -29.9357,111.7215 c 40.8567,10.9475 83.8753,10.9475 124.7321 0.0000l -29.9357,-111.7215 c -21.2455,5.6927 -43.6152,5.6927 -64.8607 -0.0000Z"/></g><g stroke-linejoin="miter" stroke-opacity="1.0" fill-opacity="0.0" stroke="rgb(0,0,0)" stroke-width="3.1999999999999997" fill="rgb(0,0,0)" stroke-linecap="butt" stroke-miterlimit="10.0"><path d="M 311.3987,488.6013 l -81.7858,81.7858 c 29.9092,29.9092 67.1644,51.4185 108.0211 62.3660l 29.9357,-111.7215 c -21.2455,-5.6927 -40.6182,-16.8776 -56.1710 -32.4303Z"/></g><g stroke-linejoin="miter" stroke-opacity="1.0" fill-opacity="0.0" stroke="rgb(0,0,0)" stroke-width="3.1999999999999997" fill="rgb(0,0,0)" stroke-linecap="butt" stroke-miterlimit="10.0"><path d="M 278.9683,432.4303 l -111.7215,29.9357 c 10.9475,40.8567 32.4568,78.1119 62.3660 108.0211l 81.7858,-81.7858 c -15.5528,-15.5528 -26.7376,-34.9255 -32.4303 -56.1710Z"/></g><g stroke-linejoin="miter" stroke-opacity="1.0" fill-opacity="0.0" stroke="rgb(0,0,0)" stroke-width="3.1999999999999997" fill="rgb(0,0,0)" stroke-linecap="butt" stroke-miterlimit="10.0"><path d="M 278.9683,367.5697 l -111.7215,-29.9357 c -10.9475,40.8567 -10.9475,83.8753 -0.0000 124.7321l 111.7215,-29.9357 c -5.6927,-21.2455 -5.6927,-43.6152 0.0000 -64.8607Z"/></g><g stroke-linejoin="miter" stroke-opacity="1.0" fill-opacity="0.0" stroke="rgb(0,0,0)" stroke-width="3.1999999999999997" fill="rgb(0,0,0)" stroke-linecap="butt" stroke-miterlimit="10.0"><path d="M 311.3987,311.3987 l -81.7858,-81.7858 c -29.9092,29.9092 -51.4185,67.1644 -62.3660 108.0211l 111.7215,29.9357 c 5.6927,-21.2455 16.8776,-40.6182 32.4303 -56.1710Z"/></g><g stroke-linejoin="miter" stroke-opacity="1.0" fill-opacity="0.0" stroke="rgb(0,0,0)" stroke-width="3.1999999999999997" fill="rgb(0,0,0)" stroke-linecap="butt" stroke-miterlimit="10.0"><path d="M 367.5697,278.9683 l -29.9357,-111.7215 c -40.8567,10.9475 -78.1119,32.4568 -108.0211 62.3660l 81.7858,81.7858 c 15.5528,-15.5528 34.9255,-26.7376 56.1710 -32.4303Z"/></g><g stroke-linejoin="miter" stroke-opacity="1.0" fill-opacity="0.0" stroke="rgb(0,0,0)" stroke-width="3.1999999999999997" fill="rgb(0,0,0)" stroke-linecap="butt" stroke-miterlimit="10.0"><path d="M 432.4303,278.9683 l 29.9357,-111.7215 c -40.8567,-10.9475 -83.8753,-10.9475 -124.7321 -0.0000l 29.9357,111.7215 c 21.2455,-5.6927 43.6152,-5.6927 64.8607 0.0000Z"/></g><g stroke-linejoin="miter" stroke-opacity="1.0" fill-opacity="0.0" stroke="rgb(0,0,0)" stroke-width="3.1999999999999997" fill="rgb(0,0,0)" stroke-linecap="butt" stroke-miterlimit="10.0"><path d="M 488.6013,311.3987 l 81.7858,-81.7858 c -29.9092,-29.9092 -67.1644,-51.4185 -108.0211 -62.3660l -29.9357,111.7215 c 21.2455,5.6927 40.6182,16.8776 56.1710 32.4303Z"/></g><g stroke-linejoin="miter" stroke-opacity="1.0" fill-opacity="0.0" stroke="rgb(0,0,0)" stroke-width="3.1999999999999997" fill="rgb(0,0,0)" stroke-linecap="butt" stroke-miterlimit="10.0"><path d="M 521.0317,367.5697 l 111.7215,-29.9357 c -10.9475,-40.8567 -32.4568,-78.1119 -62.3660 -108.0211l -81.7858,81.7858 c 15.5528,15.5528 26.7376,34.9255 32.4303 56.1710Z"/></g><g stroke-linejoin="miter" stroke-opacity="1.0" fill-opacity="0.0" stroke="rgb(0,0,0)" stroke-width="3.1999999999999997" fill="rgb(0,0,0)" stroke-linecap="butt" stroke-miterlimit="10.0"><path d="M 521.0317,432.4303 l 111.7215,29.9357 c 10.9475,-40.8567 10.9475,-83.8753 0.0000 -124.7321l -111.7215,29.9357 c 5.6927,21.2455 5.6927,43.6152 -0.0000 64.8607Z"/></g><g stroke-linejoin="miter" stroke-opacity="1.0" fill-opacity="0.0" stroke="rgb(0,0,0)" stroke-width="0.0" fill="rgb(0,0,0)" stroke-linecap="butt" stroke-miterlimit="10.0"><path d="M 286.3608,548.6360 l -24.0964,41.7362 l 41.7362,24.0964 l 24.0964,-41.7362 Z"/></g><g stroke-linejoin="miter" stroke-opacity="1.0" fill-opacity="1.0" font-size="48.192771084337345px" stroke="rgb(0,0,0)" stroke-width="3.1999999999999997" fill="rgb(0,0,0)" stroke-linecap="butt" stroke-miterlimit="10.0"><text dominant-baseline="middle" transform="matrix(-0.8660,-0.5000,0.5000,-0.8660,295.1807,581.5523)" stroke="none" text-anchor="middle">E#</text></g><g stroke-linejoin="miter" stroke-opacity="1.0" fill-opacity="0.0" stroke="rgb(0,0,0)" stroke-width="0.0" fill="rgb(0,0,0)" stroke-linecap="butt" stroke-miterlimit="10.0"><path d="M 375.9036,581.9277 l 0.0000,48.1928 l 48.1928,-0.0000 l -0.0000,-48.1928 Z"/></g><g stroke-linejoin="miter" stroke-opacity="1.0" fill-opacity="1.0" font-size="48.192771084337345px" stroke="rgb(0,0,0)" stroke-width="3.1999999999999997" fill="rgb(0,0,0)" stroke-linecap="butt" stroke-miterlimit="10.0"><text dominant-baseline="middle" transform="matrix(-1.0000,0.0000,-0.0000,-1.0000,400.0000,606.0241)" stroke="none" text-anchor="middle">A#</text></g><g stroke-linejoin="miter" stroke-opacity="1.0" fill-opacity="0.0" stroke="rgb(0,0,0)" stroke-width="0.0" fill="rgb(0,0,0)" stroke-linecap="butt" stroke-miterlimit="10.0"><path d="M 468.2885,566.4720 l 24.0964,41.7362 l 41.7362,-24.0964 l -24.0964,-41.7362 Z"/></g><g stroke-linejoin="miter" stroke-opacity="1.0" fill-opacity="1.0" font-size="48.19277108433735px" stroke="rgb(0,0,0)" stroke-width="3.1999999999999997" fill="rgb(0,0,0)" stroke-linecap="butt" stroke-miterlimit="10.0"><text dominant-baseline="middle" transform="matrix(-0.8660,0.5000,-0.5000,-0.8660,501.2048,575.2919)" stroke="none" text-anchor="middle">D#</text></g><g stroke-linejoin="miter" stroke-opacity="1.0" fill-opacity="0.0" stroke="rgb(0,0,0)" stroke-width="0.0" fill="rgb(0,0,0)" stroke-linecap="butt" stroke-miterlimit="10.0"><path d="M 539.2454,508.2175 l 41.7362,24.0964 l 24.0964,-41.7362 l -41.7362,-24.0964 Z"/></g><g stroke-linejoin="miter" stroke-opacity="1.0" fill-opacity="1.0" font-size="48.192771084337345px" stroke="rgb(0,0,0)" stroke-width="3.1999999999999997" fill="rgb(0,0,0)" stroke-linecap="butt" stroke-miterlimit="10.0"><text dominant-baseline="middle" transform="matrix(-0.5000,0.8660,-0.8660,-0.5000,572.1617,499.3976)" stroke="none" text-anchor="middle">G#</text></g><g stroke-linejoin="miter" stroke-opacity="1.0" fill-opacity="0.0" stroke="rgb(0,0,0)" stroke-width="0.0" fill="rgb(0,0,0)" stroke-linecap="butt" stroke-miterlimit="10.0"><path d="M 571.0843,424.0964 l 48.1928,-0.0000 l -0.0000,-48.1928 l -48.1928,0.0000 Z"/></g><g stroke-linejoin="miter" stroke-opacity="1.0" fill-opacity="1.0" font-size="48.192771084337345px" stroke="rgb(0,0,0)" stroke-width="3.1999999999999997" fill="rgb(0,0,0)" stroke-linecap="butt" stroke-miterlimit="10.0"><text dominant-baseline="middle" transform="matrix(0.0000,1.0000,-1.0000,0.0000,595.1807,400.0000)" stroke="none" text-anchor="middle">C#</text></g><g stroke-linejoin="miter" stroke-opacity="1.0" fill-opacity="0.0" stroke="rgb(0,0,0)" stroke-width="0.0" fill="rgb(0,0,0)" stroke-linecap="butt" stroke-miterlimit="10.0"><path d="M 557.0814,337.1331 l 41.7362,-24.0964 l -24.0964,-41.7362 l -41.7362,24.0964 Z"/></g><g stroke-linejoin="miter" stroke-opacity="1.0" fill-opacity="1.0" font-size="48.19277108433735px" stroke="rgb(0,0,0)" stroke-width="3.1999999999999997" fill="rgb(0,0,0)" stroke-linecap="butt" stroke-miterlimit="10.0"><text dominant-baseline="middle" transform="matrix(0.5000,0.8660,-0.8660,0.5000,565.9013,304.2169)" stroke="none" text-anchor="middle">F#</text></g><g stroke-linejoin="miter" stroke-opacity="1.0" fill-opacity="0.0" stroke="rgb(0,0,0)" stroke-width="0.0" fill="rgb(0,0,0)" stroke-linecap="butt" stroke-miterlimit="10.0"><path d="M 502.7958,270.1452 l 24.0964,-41.7362 l -41.7362,-24.0964 l -24.0964,41.7362 Z"/></g><g stroke-linejoin="miter" stroke-opacity="1.0" fill-opacity="1.0" font-size="48.192771084337345px" stroke="rgb(0,0,0)" stroke-width="3.1999999999999997" fill="rgb(0,0,0)" stroke-linecap="butt" stroke-miterlimit="10.0"><text dominant-baseline="middle" transform="matrix(0.8660,0.5000,-0.5000,0.8660,493.9759,237.2290)" stroke="none" text-anchor="middle">B</text></g><g stroke-linejoin="miter" stroke-opacity="1.0" fill-opacity="0.0" stroke="rgb(0,0,0)" stroke-width="0.0" fill="rgb(0,0,0)" stroke-linecap="butt" stroke-miterlimit="10.0"><path d="M 424.0964,239.7590 l -0.0000,-48.1928 l -48.1928,0.0000 l 0.0000,48.1928 Z"/></g><g stroke-linejoin="miter" stroke-opacity="1.0" fill-opacity="1.0" font-size="48.192771084337345px" stroke="rgb(0,0,0)" stroke-width="3.1999999999999997" fill="rgb(0,0,0)" stroke-linecap="butt" stroke-miterlimit="10.0"><text dominant-baseline="middle" transform="matrix(1.0000,-0.0000,0.0000,1.0000,400.0000,215.6627)" stroke="none" text-anchor="middle">E</text></g><g stroke-linejoin="miter" stroke-opacity="1.0" fill-opacity="0.0" stroke="rgb(0,0,0)" stroke-width="0.0" fill="rgb(0,0,0)" stroke-linecap="butt" stroke-miterlimit="10.0"><path d="M 342.5548,252.3093 l -24.0964,-41.7362 l -41.7362,24.0964 l 24.0964,41.7362 Z"/></g><g stroke-linejoin="miter" stroke-opacity="1.0" fill-opacity="1.0" font-size="48.192771084337345px" stroke="rgb(0,0,0)" stroke-width="3.1999999999999997" fill="rgb(0,0,0)" stroke-linecap="butt" stroke-miterlimit="10.0"><text dominant-baseline="middle" transform="matrix(0.8660,-0.5000,0.5000,0.8660,309.6386,243.4894)" stroke="none" text-anchor="middle">A</text></g><g stroke-linejoin="miter" stroke-opacity="1.0" fill-opacity="0.0" stroke="rgb(0,0,0)" stroke-width="0.0" fill="rgb(0,0,0)" stroke-linecap="butt" stroke-miterlimit="10.0"><path d="M 279.5359,302.6259 l -41.7362,-24.0964 l -24.0964,41.7362 l 41.7362,24.0964 Z"/></g><g stroke-linejoin="miter" stroke-opacity="1.0" fill-opacity="1.0" font-size="48.192771084337345px" stroke="rgb(0,0,0)" stroke-width="3.1999999999999997" fill="rgb(0,0,0)" stroke-linecap="butt" stroke-miterlimit="10.0"><text dominant-baseline="middle" transform="matrix(0.5000,-0.8660,0.8660,0.5000,246.6196,311.4458)" stroke="none" text-anchor="middle">D</text></g><g stroke-linejoin="miter" stroke-opacity="1.0" fill-opacity="0.0" stroke="rgb(0,0,0)" stroke-width="0.0" fill="rgb(0,0,0)" stroke-linecap="butt" stroke-miterlimit="10.0"><path d="M 250.6024,375.9036 l -48.1928,0.0000 l 0.0000,48.1928 l 48.1928,-0.0000 Z"/></g><g stroke-linejoin="miter" stroke-opacity="1.0" fill-opacity="1.0" font-size="48.192771084337345px" stroke="rgb(0,0,0)" stroke-width="3.1999999999999997" fill="rgb(0,0,0)" stroke-linecap="butt" stroke-miterlimit="10.0"><text dominant-baseline="middle" transform="matrix(-0.0000,-1.0000,1.0000,-0.0000,226.5060,400.0000)" stroke="none" text-anchor="middle">G</text></g><g stroke-linejoin="miter" stroke-opacity="1.0" fill-opacity="0.0" stroke="rgb(0,0,0)" stroke-width="0.0" fill="rgb(0,0,0)" stroke-linecap="butt" stroke-miterlimit="10.0"><path d="M 261.6999,452.0235 l -41.7362,24.0964 l 24.0964,41.7362 l 41.7362,-24.0964 Z"/></g><g stroke-linejoin="miter" stroke-opacity="1.0" fill-opacity="1.0" font-size="48.192771084337345px" stroke="rgb(0,0,0)" stroke-width="3.1999999999999997" fill="rgb(0,0,0)" stroke-linecap="butt" stroke-miterlimit="10.0"><text dominant-baseline="middle" transform="matrix(-0.5000,-0.8660,0.8660,-0.5000,252.8800,484.9398)" stroke="none" text-anchor="middle">C</text></g><g stroke-linejoin="miter" stroke-opacity="1.0" fill-opacity="0.0" stroke="rgb(0,0,0)" stroke-width="0.0" fill="rgb(0,0,0)" stroke-linecap="butt" stroke-miterlimit="10.0"><path d="M 308.0476,511.0735 l -24.0964,41.7362 l 41.7362,24.0964 l 24.0964,-41.7362 Z"/></g><g stroke-linejoin="miter" stroke-opacity="1.0" fill-opacity="1.0" font-size="48.192771084337345px" stroke="rgb(0,0,0)" stroke-width="3.1999999999999997" fill="rgb(0,0,0)" stroke-linecap="butt" stroke-miterlimit="10.0"><text dominant-baseline="middle" transform="matrix(-0.8660,-0.5000,0.5000,-0.8660,316.8675,543.9898)" stroke="none" text-anchor="middle">F</text></g><g stroke-linejoin="miter" stroke-opacity="1.0" fill-opacity="0.0" stroke="rgb(0,0,0)" stroke-width="0.0" fill="rgb(0,0,0)" stroke-linecap="butt" stroke-miterlimit="10.0"><path d="M 375.9036,538.5542 l 0.0000,48.1928 l 48.1928,-0.0000 l -0.0000,-48.1928 Z"/></g><g stroke-linejoin="miter" stroke-opacity="1.0" fill-opacity="1.0" font-size="48.192771084337345px" stroke="rgb(0,0,0)" stroke-width="3.1999999999999997" fill="rgb(0,0,0)" stroke-linecap="butt" stroke-miterlimit="10.0"><text dominant-baseline="middle" transform="matrix(-1.0000,0.0000,-0.0000,-1.0000,400.0000,562.6506)" stroke="none" text-anchor="middle">Bb</text></g><g stroke-linejoin="miter" stroke-opacity="1.0" fill-opacity="0.0" stroke="rgb(0,0,0)" stroke-width="0.0" fill="rgb(0,0,0)" stroke-linecap="butt" stroke-miterlimit="10.0"><path d="M 446.6018,528.9095 l 24.0964,41.7362 l 41.7362,-24.0964 l -24.0964,-41.7362 Z"/></g><g stroke-linejoin="miter" stroke-opacity="1.0" fill-opacity="1.0" font-size="48.192771084337345px" stroke="rgb(0,0,0)" stroke-width="3.1999999999999997" fill="rgb(0,0,0)" stroke-linecap="butt" stroke-miterlimit="10.0"><text dominant-baseline="middle" transform="matrix(-0.8660,0.5000,-0.5000,-0.8660,479.5181,537.7293)" stroke="none" text-anchor="middle">Eb</text></g><g stroke-linejoin="miter" stroke-opacity="1.0" fill-opacity="0.0" stroke="rgb(0,0,0)" stroke-width="0.0" fill="rgb(0,0,0)" stroke-linecap="butt" stroke-miterlimit="10.0"><path d="M 501.6829,486.5307 l 41.7362,24.0964 l 24.0964,-41.7362 l -41.7362,-24.0964 Z"/></g><g stroke-linejoin="miter" stroke-opacity="1.0" fill-opacity="1.0" font-size="48.19277108433735px" stroke="rgb(0,0,0)" stroke-width="3.1999999999999997" fill="rgb(0,0,0)" stroke-linecap="butt" stroke-miterlimit="10.0"><text dominant-baseline="middle" transform="matrix(-0.5000,0.8660,-0.8660,-0.5000,534.5991,477.7108)" stroke="none" text-anchor="middle">Ab</text></g><g stroke-linejoin="miter" stroke-opacity="1.0" fill-opacity="0.0" stroke="rgb(0,0,0)" stroke-width="0.0" fill="rgb(0,0,0)" stroke-linecap="butt" stroke-miterlimit="10.0"><path d="M 527.7108,424.0964 l 48.1928,-0.0000 l -0.0000,-48.1928 l -48.1928,-0.0000 Z"/></g><g stroke-linejoin="miter" stroke-opacity="1.0" fill-opacity="1.0" font-size="48.192771084337345px" stroke="rgb(0,0,0)" stroke-width="3.1999999999999997" fill="rgb(0,0,0)" stroke-linecap="butt" stroke-miterlimit="10.0"><text dominant-baseline="middle" transform="matrix(0.0000,1.0000,-1.0000,0.0000,551.8072,400.0000)" stroke="none" text-anchor="middle">Db</text></g><g stroke-linejoin="miter" stroke-opacity="1.0" fill-opacity="0.0" stroke="rgb(0,0,0)" stroke-width="0.0" fill="rgb(0,0,0)" stroke-linecap="butt" stroke-miterlimit="10.0"><path d="M 519.5188,358.8199 l 41.7362,-24.0964 l -24.0964,-41.7362 l -41.7362,24.0964 Z"/></g><g stroke-linejoin="miter" stroke-opacity="1.0" fill-opacity="1.0" font-size="48.192771084337345px" stroke="rgb(0,0,0)" stroke-width="3.1999999999999997" fill="rgb(0,0,0)" stroke-linecap="butt" stroke-miterlimit="10.0"><text dominant-baseline="middle" transform="matrix(0.5000,0.8660,-0.8660,0.5000,528.3387,325.9036)" stroke="none" text-anchor="middle">Gb</text></g><g stroke-linejoin="miter" stroke-opacity="1.0" fill-opacity="0.0" stroke="rgb(0,0,0)" stroke-width="0.0" fill="rgb(0,0,0)" stroke-linecap="butt" stroke-miterlimit="10.0"><path d="M 481.1090,307.7078 l 24.0964,-41.7362 l -41.7362,-24.0964 l -24.0964,41.7362 Z"/></g><g stroke-linejoin="miter" stroke-opacity="1.0" fill-opacity="1.0" font-size="48.192771084337345px" stroke="rgb(0,0,0)" stroke-width="3.1999999999999997" fill="rgb(0,0,0)" stroke-linecap="butt" stroke-miterlimit="10.0"><text dominant-baseline="middle" transform="matrix(0.8660,0.5000,-0.5000,0.8660,472.2892,274.7915)" stroke="none" text-anchor="middle">Cb</text></g><g stroke-linejoin="miter" stroke-opacity="1.0" fill-opacity="0.0" stroke="rgb(0,0,0)" stroke-width="3.1999999999999997" fill="rgb(0,0,0)" stroke-linecap="butt" stroke-miterlimit="10.0"><path d="M 404.8193,400.0000 c 0.0000,-2.6616 -2.1577,-4.8193 -4.8193 -4.8193c -2.6616,-0.0000 -4.8193,2.1577 -4.8193 4.8193c -0.0000,2.6616 2.1577,4.8193 4.8193 4.8193c 2.6616,0.0000 4.8193,-2.1577 4.8193 -4.8193Z"/></g></svg>